<svg xmlns="http://www.w3.org/2000/svg" xmlns:xlink="http://www.w3.org/1999/xlink" width="1078pt" height="1516" viewBox="0 0 1078.08 1136.66"><g id="graph0" class="graph" transform="scale(1 1) rotate(0) translate(4 1132.6593)"><title>kilo</title><polygon fill="#fff" stroke="transparent" points="-4 4 -4 -1132.659 1074.083 -1132.659 1074.083 4 -4 4"/><text x="535.042" y="-1113.459" fill="#000" font-family="Times,serif" font-size="14" text-anchor="middle">10.4.0.0/16</text><g id="node1" class="node"><title>ip-10-0-15-186</title><ellipse cx="299.225" cy="-482.902" fill="none" stroke="#000" rx="70.007" ry="58.88"/><text x="299.225" y="-509.202" fill="#000" font-family="Times,serif" font-size="14" text-anchor="middle">aws</text><text x="299.225" y="-494.202" fill="#000" font-family="Times,serif" font-size="14" text-anchor="middle">ip-10-0-15-186</text><text x="299.225" y="-479.202" fill="#000" font-family="Times,serif" font-size="14" text-anchor="middle">10.2.3.0/24</text><text x="299.225" y="-464.202" fill="#000" font-family="Times,serif" font-size="14" text-anchor="middle">10.0.15.186</text><text x="299.225" y="-449.202" fill="#000" font-family="Times,serif" font-size="14" text-anchor="middle">10.4.0.1</text></g><g id="node2" class="node"><title>ip-10-0-29-239</title><ellipse cx="185.106" cy="-48.083" fill="none" stroke="#000" rx="70.007" ry="48.167"/><text x="185.106" y="-66.883" fill="#000" font-family="Times,serif" font-size="14" text-anchor="middle">aws</text><text x="185.106" y="-51.883" fill="#000" font-family="Times,serif" font-size="14" text-anchor="middle">ip-10-0-29-239</text><text x="185.106" y="-36.883" fill="#000" font-family="Times,serif" font-size="14" text-anchor="middle">10.2.4.0/24</text><text x="185.106" y="-21.883" fill="#000" font-family="Times,serif" font-size="14" text-anchor="middle">10.0.29.239</text></g><g id="node3" class="node"><title>ip-10-0-41-215</title><ellipse cx="358.151" cy="-58.299" fill="none" stroke="#000" rx="70.007" ry="48.167"/><text x="358.151" y="-77.099" fill="#000" font-family="Times,serif" font-size="14" text-anchor="middle">aws</text><text x="358.151" y="-62.099" fill="#000" font-family="Times,serif" font-size="14" text-anchor="middle">ip-10-0-41-215</text><text x="358.151" y="-47.099" fill="#000" font-family="Times,serif" font-size="14" text-anchor="middle">10.2.2.0/24</text><text x="358.151" y="-32.099" fill="#000" font-family="Times,serif" font-size="14" text-anchor="middle">10.0.41.215</text></g><g id="node4" class="node"><title>ip-10-0-46-197</title><ellipse cx="522.008" cy="-114.863" fill="none" stroke="#000" rx="70.007" ry="48.167"/><text x="522.008" y="-133.663" fill="#000" font-family="Times,serif" font-size="14" text-anchor="middle">aws</text><text x="522.008" y="-118.663" fill="#000" font-family="Times,serif" font-size="14" text-anchor="middle">ip-10-0-46-197</text><text x="522.008" y="-103.663" fill="#000" font-family="Times,serif" font-size="14" text-anchor="middle">10.2.6.0/24</text><text x="522.008" y="-88.663" fill="#000" font-family="Times,serif" font-size="14" text-anchor="middle">10.0.46.197</text></g><g id="node5" class="node"><title>ip-10-0-6-0</title><ellipse cx="655.886" cy="-205.81" fill="none" stroke="#000" rx="55.723" ry="48.167"/><text x="655.886" y="-224.61" fill="#000" font-family="Times,serif" font-size="14" text-anchor="middle">aws</text><text x="655.886" y="-209.61" fill="#000" font-family="Times,serif" font-size="14" text-anchor="middle">ip-10-0-6-0</text><text x="655.886" y="-194.61" fill="#000" font-family="Times,serif" font-size="14" text-anchor="middle">10.2.7.0/24</text><text x="655.886" y="-179.61" fill="#000" font-family="Times,serif" font-size="14" text-anchor="middle">10.0.6.0</text></g><g id="node6" class="node"><title>kilo-gcp-worker0.sapyens.org</title><ellipse cx="443.951" cy="-682.1" fill="none" stroke="#000" rx="124.402" ry="58.88"/><text x="443.951" y="-708.4" fill="#000" font-family="Times,serif" font-size="14" text-anchor="middle">gcp</text><text x="443.951" y="-693.4" fill="#000" font-family="Times,serif" font-size="14" text-anchor="middle">kilo-gcp-worker0.sapyens.org</text><text x="443.951" y="-678.4" fill="#000" font-family="Times,serif" font-size="14" text-anchor="middle">10.2.10.0/24</text><text x="443.951" y="-663.4" fill="#000" font-family="Times,serif" font-size="14" text-anchor="middle">10.1.96.6</text><text x="443.951" y="-648.4" fill="#000" font-family="Times,serif" font-size="14" text-anchor="middle">10.4.0.5</text></g><g id="node7" class="node"><title>kilo-gcp-worker1.sapyens.org</title><ellipse cx="852.444" cy="-306.623" fill="none" stroke="#000" rx="124.402" ry="48.167"/><text x="852.444" y="-325.423" fill="#000" font-family="Times,serif" font-size="14" text-anchor="middle">gcp</text><text x="852.444" y="-310.423" fill="#000" font-family="Times,serif" font-size="14" text-anchor="middle">kilo-gcp-worker1.sapyens.org</text><text x="852.444" y="-295.423" fill="#000" font-family="Times,serif" font-size="14" text-anchor="middle">10.2.12.0/24</text><text x="852.444" y="-280.423" fill="#000" font-family="Times,serif" font-size="14" text-anchor="middle">10.1.96.8</text></g><g id="node8" class="node"><title>kilo-gcp-worker2.sapyens.org</title><ellipse cx="945.633" cy="-551.224" fill="none" stroke="#000" rx="124.402" ry="48.167"/><text x="945.633" y="-570.024" fill="#000" font-family="Times,serif" font-size="14" text-anchor="middle">gcp</text><text x="945.633" y="-555.024" fill="#000" font-family="Times,serif" font-size="14" text-anchor="middle">kilo-gcp-worker2.sapyens.org</text><text x="945.633" y="-540.024" fill="#000" font-family="Times,serif" font-size="14" text-anchor="middle">10.2.9.0/24</text><text x="945.633" y="-525.024" fill="#000" font-family="Times,serif" font-size="14" text-anchor="middle">10.1.96.4</text></g><g id="node9" class="node"><title>kilo-gcp-worker3.sapyens.org</title><ellipse cx="945.633" cy="-812.975" fill="none" stroke="#000" rx="124.402" ry="48.167"/><text x="945.633" y="-831.775" fill="#000" font-family="Times,serif" font-size="14" text-anchor="middle">gcp</text><text x="945.633" y="-816.775" fill="#000" font-family="Times,serif" font-size="14" text-anchor="middle">kilo-gcp-worker3.sapyens.org</text><text x="945.633" y="-801.775" fill="#000" font-family="Times,serif" font-size="14" text-anchor="middle">10.2.8.0/24</text><text x="945.633" y="-786.775" fill="#000" font-family="Times,serif" font-size="14" text-anchor="middle">10.1.96.5</text></g><g id="node10" class="node"><title>kilo-gcp-worker4.sapyens.org</title><ellipse cx="852.444" cy="-1057.576" fill="none" stroke="#000" rx="124.402" ry="48.167"/><text x="852.444" y="-1076.376" fill="#000" font-family="Times,serif" font-size="14" text-anchor="middle">gcp</text><text x="852.444" y="-1061.376" fill="#000" font-family="Times,serif" font-size="14" text-anchor="middle">kilo-gcp-worker4.sapyens.org</text><text x="852.444" y="-1046.376" fill="#000" font-family="Times,serif" font-size="14" text-anchor="middle">10.2.11.0/24</text><text x="852.444" y="-1031.376" fill="#000" font-family="Times,serif" font-size="14" text-anchor="middle">10.1.96.7</text></g><g id="node11" class="node"><title>ip-10-0-3-226</title><ellipse cx="65.054" cy="-805.211" fill="none" stroke="#000" rx="65.108" ry="58.88"/><text x="65.054" y="-831.511" fill="#000" font-family="Times,serif" font-size="14" text-anchor="middle">ip-10-0-3-226</text><text x="65.054" y="-816.511" fill="#000" font-family="Times,serif" font-size="14" text-anchor="middle">ip-10-0-3-226</text><text x="65.054" y="-801.511" fill="#000" font-family="Times,serif" font-size="14" text-anchor="middle">10.2.1.0/24</text><text x="65.054" y="-786.511" fill="#000" font-family="Times,serif" font-size="14" text-anchor="middle">10.0.3.226</text><text x="65.054" y="-771.511" fill="#000" font-family="Times,serif" font-size="14" text-anchor="middle">10.4.0.2</text></g><g id="node12" class="node"><title>ip-10-0-31-112</title><ellipse cx="299.225" cy="-881.298" fill="none" stroke="#000" rx="70.007" ry="58.88"/><text x="299.225" y="-907.598" fill="#000" font-family="Times,serif" font-size="14" text-anchor="middle">ip-10-0-31-112</text><text x="299.225" y="-892.598" fill="#000" font-family="Times,serif" font-size="14" text-anchor="middle">ip-10-0-31-112</text><text x="299.225" y="-877.598" fill="#000" font-family="Times,serif" font-size="14" text-anchor="middle">10.2.5.0/24</text><text x="299.225" y="-862.598" fill="#000" font-family="Times,serif" font-size="14" text-anchor="middle">10.0.31.112</text><text x="299.225" y="-847.598" fill="#000" font-family="Times,serif" font-size="14" text-anchor="middle">10.4.0.3</text></g><g id="node13" class="node"><title>ip-10-0-35-46</title><ellipse cx="65.054" cy="-558.989" fill="none" stroke="#000" rx="65.108" ry="58.88"/><text x="65.054" y="-585.288" fill="#000" font-family="Times,serif" font-size="14" text-anchor="middle">ip-10-0-35-46</text><text x="65.054" y="-570.288" fill="#000" font-family="Times,serif" font-size="14" text-anchor="middle">ip-10-0-35-46</text><text x="65.054" y="-555.288" fill="#000" font-family="Times,serif" font-size="14" text-anchor="middle">10.2.0.0/24</text><text x="65.054" y="-540.288" fill="#000" font-family="Times,serif" font-size="14" text-anchor="middle">10.0.35.46</text><text x="65.054" y="-525.288" fill="#000" font-family="Times,serif" font-size="14" text-anchor="middle">10.4.0.4</text></g><g id="edge1" class="edge"><title>ip-10-0-15-186-&gt;ip-10-0-29-239</title><path fill="none" stroke="#000" d="M281.5275,-415.4693C259.2084,-330.4288 221.2173,-185.6747 200.2037,-105.6085"/><polygon fill="#000" stroke="#000" points="278.147 -416.377 284.071 -425.161 284.918 -414.6 278.147 -416.377"/><polygon fill="#000" stroke="#000" points="203.527 -104.484 197.603 -95.7 196.756 -106.261 203.527 -104.484"/></g><g id="edge2" class="edge"><title>ip-10-0-15-186-&gt;ip-10-0-41-215</title><path fill="none" stroke="#000" d="M308.7399,-414.341C320.2082,-331.7031 339.2797,-194.2784 350.0672,-116.5463"/><polygon fill="#000" stroke="#000" points="305.265 -413.922 307.357 -424.308 312.198 -414.884 305.265 -413.922"/><polygon fill="#000" stroke="#000" points="353.561 -116.834 351.469 -106.448 346.627 -115.871 353.561 -116.834"/></g><g id="edge3" class="edge"><title>ip-10-0-15-186-&gt;ip-10-0-46-197</title><path fill="none" stroke="#000" d="M336.2154,-421.7937C379.0484,-351.0334 448.9217,-235.6024 489.6709,-168.2845"/><polygon fill="#000" stroke="#000" points="333.092 -420.194 330.908 -430.562 339.081 -423.819 333.092 -420.194"/><polygon fill="#000" stroke="#000" points="492.794 -169.884 494.978 -159.517 486.806 -166.259 492.794 -169.884"/></g><g id="edge4" class="edge"><title>ip-10-0-15-186-&gt;ip-10-0-6-0</title><path fill="none" stroke="#000" d="M358.8444,-436.5832C428.159,-382.7324 541.3115,-294.8238 606.1157,-244.4771"/><polygon fill="#000" stroke="#000" points="356.455 -434.007 350.706 -442.906 360.75 -439.535 356.455 -434.007"/><polygon fill="#000" stroke="#000" points="608.409 -247.128 614.158 -238.229 604.114 -241.6 608.409 -247.128"/></g><g id="edge12" class="edge"><title>ip-10-0-15-186-&gt;kilo-gcp-worker0.sapyens.org</title><path fill="none" stroke="#000" d="M341.668,-541.319C359.1621,-565.3976 379.488,-593.3737 397.3897,-618.0133"/><polygon fill="#000" stroke="#000" points="344.455 -539.201 335.746 -533.168 338.792 -543.315 344.455 -539.201"/><polygon fill="#000" stroke="#000" points="394.651 -620.198 403.36 -626.231 400.314 -616.084 394.651 -620.198"/></g><g id="edge9" class="edge"><title>ip-10-0-15-186-&gt;ip-10-0-3-226</title><path fill="none" stroke="#000" d="M256.5072,-541.6979C213.9695,-600.246 149.0879,-689.5479 106.8697,-747.6563"/><polygon fill="#000" stroke="#000" points="259.59 -543.41 262.636 -533.262 253.927 -539.295 259.59 -543.41"/><polygon fill="#000" stroke="#000" points="103.857 -745.848 100.811 -755.996 109.52 -749.963 103.857 -745.848"/></g><g id="edge10" class="edge"><title>ip-10-0-15-186-&gt;ip-10-0-31-112</title><path fill="none" stroke="#000" d="M299.2253,-551.704C299.2253,-624.7601 299.2253,-739.5541 299.2253,-812.5786"/><polygon fill="#000" stroke="#000" points="302.725 -551.686 299.225 -541.686 295.725 -551.686 302.725 -551.686"/><polygon fill="#000" stroke="#000" points="295.725 -812.597 299.225 -822.597 302.725 -812.597 295.725 -812.597"/></g><g id="edge11" class="edge"><title>ip-10-0-15-186-&gt;ip-10-0-35-46</title><path fill="none" stroke="#000" d="M224.0726,-507.3201C195.9022,-516.4732 164.0005,-526.8388 136.2037,-535.8705"/><polygon fill="#000" stroke="#000" points="225.255 -510.616 233.684 -504.197 223.092 -503.959 225.255 -510.616"/><polygon fill="#000" stroke="#000" points="134.985 -532.586 126.556 -539.005 137.148 -539.244 134.985 -532.586"/></g><g id="edge5" class="edge"><title>kilo-gcp-worker0.sapyens.org-&gt;kilo-gcp-worker1.sapyens.org</title><path fill="none" stroke="#000" d="M508.9539,-622.3509C588.4452,-549.2844 721.6467,-426.8491 796.6804,-357.88"/><polygon fill="#000" stroke="#000" points="506.174 -620.152 501.18 -629.496 510.911 -625.306 506.174 -620.152"/><polygon fill="#000" stroke="#000" points="799.207 -360.312 804.201 -350.967 794.47 -355.158 799.207 -360.312"/></g><g id="edge6" class="edge"><title>kilo-gcp-worker0.sapyens.org-&gt;kilo-gcp-worker2.sapyens.org</title><path fill="none" stroke="#000" d="M562.8134,-651.0916C644.3049,-629.8326 751.7807,-601.795 832.1046,-580.8406"/><polygon fill="#000" stroke="#000" points="561.91 -647.71 553.118 -653.621 563.678 -654.483 561.91 -647.71"/><polygon fill="#000" stroke="#000" points="833.465 -584.103 842.258 -578.192 831.698 -577.33 833.465 -584.103"/></g><g id="edge7" class="edge"><title>kilo-gcp-worker0.sapyens.org-&gt;kilo-gcp-worker3.sapyens.org</title><path fill="none" stroke="#000" d="M562.8134,-713.1077C644.3049,-734.3667 751.7807,-762.4044 832.1046,-783.3587"/><polygon fill="#000" stroke="#000" points="563.678 -709.716 553.118 -710.578 561.91 -716.489 563.678 -709.716"/><polygon fill="#000" stroke="#000" points="831.698 -786.87 842.258 -786.007 833.465 -780.096 831.698 -786.87"/></g><g id="edge8" class="edge"><title>kilo-gcp-worker0.sapyens.org-&gt;kilo-gcp-worker4.sapyens.org</title><path fill="none" stroke="#000" d="M508.9539,-741.8485C588.4452,-814.9149 721.6467,-937.3503 796.6804,-1006.3194"/><polygon fill="#000" stroke="#000" points="510.911 -738.894 501.18 -734.703 506.174 -744.048 510.911 -738.894"/><polygon fill="#000" stroke="#000" points="794.47 -1009.041 804.201 -1013.232 799.207 -1003.888 794.47 -1009.041"/></g><g id="edge15" class="edge"><title>ip-10-0-3-226-&gt;kilo-gcp-worker0.sapyens.org</title><path fill="none" stroke="#000" d="M136.1324,-782.1161C191.1332,-764.2452 268.3432,-739.1582 331.6749,-718.5805"/><polygon fill="#000" stroke="#000" points="134.78 -778.875 126.351 -785.294 136.944 -785.533 134.78 -778.875"/><polygon fill="#000" stroke="#000" points="332.885 -721.868 341.314 -715.449 330.721 -715.21 332.885 -721.868"/></g><g id="edge13" class="edge"><title>ip-10-0-3-226-&gt;ip-10-0-31-112</title><path fill="none" stroke="#000" d="M136.1691,-828.3176C163.9678,-837.35 195.8763,-847.7177 224.0537,-856.8731"/><polygon fill="#000" stroke="#000" points="136.866 -824.864 126.274 -825.102 134.703 -831.521 136.866 -824.864"/><polygon fill="#000" stroke="#000" points="223.26 -860.295 233.852 -860.057 225.423 -853.638 223.26 -860.295"/></g><g id="edge14" class="edge"><title>ip-10-0-3-226-&gt;ip-10-0-35-46</title><path fill="none" stroke="#000" d="M65.0538,-735.9743C65.0538,-702.2628 65.0538,-661.8375 65.0538,-628.1376"/><polygon fill="#000" stroke="#000" points="61.554 -736.235 65.054 -746.235 68.554 -736.235 61.554 -736.235"/><polygon fill="#000" stroke="#000" points="68.554 -627.91 65.054 -617.91 61.554 -627.91 68.554 -627.91"/></g><g id="edge17" class="edge"><title>ip-10-0-31-112-&gt;kilo-gcp-worker0.sapyens.org</title><path fill="none" stroke="#000" d="M341.668,-822.8804C359.1621,-798.8018 379.488,-770.8256 397.3897,-746.186"/><polygon fill="#000" stroke="#000" points="338.792 -820.884 335.746 -831.032 344.455 -824.999 338.792 -820.884"/><polygon fill="#000" stroke="#000" points="400.314 -748.116 403.36 -737.968 394.651 -744.001 400.314 -748.116"/></g><g id="edge16" class="edge"><title>ip-10-0-31-112-&gt;ip-10-0-35-46</title><path fill="none" stroke="#000" d="M256.5072,-822.5014C213.9695,-763.9534 149.0879,-674.6514 106.8697,-616.543"/><polygon fill="#000" stroke="#000" points="253.927 -824.904 262.636 -830.937 259.59 -820.789 253.927 -824.904"/><polygon fill="#000" stroke="#000" points="109.52 -614.236 100.811 -608.203 103.857 -618.351 109.52 -614.236"/></g><g id="edge18" class="edge"><title>ip-10-0-35-46-&gt;kilo-gcp-worker0.sapyens.org</title><path fill="none" stroke="#000" d="M136.1324,-582.0833C191.1332,-599.9541 268.3432,-625.0412 331.6749,-645.6189"/><polygon fill="#000" stroke="#000" points="136.944 -578.667 126.351 -578.905 134.78 -585.324 136.944 -578.667"/><polygon fill="#000" stroke="#000" points="330.721 -648.989 341.314 -648.751 332.885 -642.332 330.721 -648.989"/></g></g></svg>