<svg xmlns="http://www.w3.org/2000/svg" xmlns:xlink="http://www.w3.org/1999/xlink" width="1118pt" height="1090pt" viewBox="0 0 1118.4 1090.07"><g id="graph0" class="graph" transform="scale(1 1) rotate(0) translate(4 1086.0734)"><title>kilo</title><polygon fill="#fff" stroke="transparent" points="-4 4 -4 -1086.073 1114.403 -1086.073 1114.403 4 -4 4"/><text x="555.202" y="-1066.873" fill="#000" font-family="Times,serif" font-size="14" text-anchor="middle">10.4.0.0/16</text><g id="node1" class="node"><title>ip-10-0-15-186</title><ellipse cx="956.852" cy="-307.711" fill="none" stroke="#000" rx="70.007" ry="58.88"/><text x="956.852" y="-334.011" fill="#000" font-family="Times,serif" font-size="14" text-anchor="middle">ip-10-0-15-186</text><text x="956.852" y="-319.011" fill="#000" font-family="Times,serif" font-size="14" text-anchor="middle">ip-10-0-15-186</text><text x="956.852" y="-304.011" fill="#000" font-family="Times,serif" font-size="14" text-anchor="middle">10.2.3.0/24</text><text x="956.852" y="-289.011" fill="#000" font-family="Times,serif" font-size="14" text-anchor="middle">10.0.15.186</text><text x="956.852" y="-274.011" fill="#000" font-family="Times,serif" font-size="14" text-anchor="middle">10.4.0.1</text></g><g id="node2" class="node"><title>ip-10-0-29-239</title><ellipse cx="1022.543" cy="-526.258" fill="none" stroke="#000" rx="70.007" ry="58.88"/><text x="1022.543" y="-552.558" fill="#000" font-family="Times,serif" font-size="14" text-anchor="middle">ip-10-0-29-239</text><text x="1022.543" y="-537.558" fill="#000" font-family="Times,serif" font-size="14" text-anchor="middle">ip-10-0-29-239</text><text x="1022.543" y="-522.558" fill="#000" font-family="Times,serif" font-size="14" text-anchor="middle">10.2.4.0/24</text><text x="1022.543" y="-507.558" fill="#000" font-family="Times,serif" font-size="14" text-anchor="middle">10.0.29.239</text><text x="1022.543" y="-492.558" fill="#000" font-family="Times,serif" font-size="14" text-anchor="middle">10.4.0.2</text></g><g id="node3" class="node"><title>ip-10-0-3-226</title><ellipse cx="594.476" cy="-58.69" fill="none" stroke="#000" rx="65.108" ry="58.88"/><text x="594.476" y="-84.99" fill="#000" font-family="Times,serif" font-size="14" text-anchor="middle">ip-10-0-3-226</text><text x="594.476" y="-69.99" fill="#000" font-family="Times,serif" font-size="14" text-anchor="middle">ip-10-0-3-226</text><text x="594.476" y="-54.99" fill="#000" font-family="Times,serif" font-size="14" text-anchor="middle">10.2.1.0/24</text><text x="594.476" y="-39.99" fill="#000" font-family="Times,serif" font-size="14" text-anchor="middle">10.0.3.226</text><text x="594.476" y="-24.99" fill="#000" font-family="Times,serif" font-size="14" text-anchor="middle">10.4.0.3</text></g><g id="node4" class="node"><title>ip-10-0-31-112</title><ellipse cx="370.285" cy="-85.9" fill="none" stroke="#000" rx="70.007" ry="58.88"/><text x="370.285" y="-112.2" fill="#000" font-family="Times,serif" font-size="14" text-anchor="middle">ip-10-0-31-112</text><text x="370.285" y="-97.2" fill="#000" font-family="Times,serif" font-size="14" text-anchor="middle">ip-10-0-31-112</text><text x="370.285" y="-82.2" fill="#000" font-family="Times,serif" font-size="14" text-anchor="middle">10.2.5.0/24</text><text x="370.285" y="-67.2" fill="#000" font-family="Times,serif" font-size="14" text-anchor="middle">10.0.31.112</text><text x="370.285" y="-52.2" fill="#000" font-family="Times,serif" font-size="14" text-anchor="middle">10.4.0.4</text></g><g id="node5" class="node"><title>ip-10-0-35-46</title><ellipse cx="184.209" cy="-214.137" fill="none" stroke="#000" rx="65.108" ry="58.88"/><text x="184.209" y="-240.437" fill="#000" font-family="Times,serif" font-size="14" text-anchor="middle">ip-10-0-35-46</text><text x="184.209" y="-225.437" fill="#000" font-family="Times,serif" font-size="14" text-anchor="middle">ip-10-0-35-46</text><text x="184.209" y="-210.437" fill="#000" font-family="Times,serif" font-size="14" text-anchor="middle">10.2.0.0/24</text><text x="184.209" y="-195.437" fill="#000" font-family="Times,serif" font-size="14" text-anchor="middle">10.0.35.46</text><text x="184.209" y="-180.437" fill="#000" font-family="Times,serif" font-size="14" text-anchor="middle">10.4.0.5</text></g><g id="node6" class="node"><title>ip-10-0-41-215</title><ellipse cx="78.173" cy="-414.022" fill="none" stroke="#000" rx="70.007" ry="58.88"/><text x="78.173" y="-440.322" fill="#000" font-family="Times,serif" font-size="14" text-anchor="middle">ip-10-0-41-215</text><text x="78.173" y="-425.322" fill="#000" font-family="Times,serif" font-size="14" text-anchor="middle">ip-10-0-41-215</text><text x="78.173" y="-410.322" fill="#000" font-family="Times,serif" font-size="14" text-anchor="middle">10.2.2.0/24</text><text x="78.173" y="-395.322" fill="#000" font-family="Times,serif" font-size="14" text-anchor="middle">10.0.41.215</text><text x="78.173" y="-380.322" fill="#000" font-family="Times,serif" font-size="14" text-anchor="middle">10.4.0.6</text></g><g id="node7" class="node"><title>ip-10-0-46-197</title><ellipse cx="70.004" cy="-639.816" fill="none" stroke="#000" rx="70.007" ry="58.88"/><text x="70.004" y="-666.116" fill="#000" font-family="Times,serif" font-size="14" text-anchor="middle">ip-10-0-46-197</text><text x="70.004" y="-651.116" fill="#000" font-family="Times,serif" font-size="14" text-anchor="middle">ip-10-0-46-197</text><text x="70.004" y="-636.116" fill="#000" font-family="Times,serif" font-size="14" text-anchor="middle">10.2.6.0/24</text><text x="70.004" y="-621.116" fill="#000" font-family="Times,serif" font-size="14" text-anchor="middle">10.0.46.197</text><text x="70.004" y="-606.116" fill="#000" font-family="Times,serif" font-size="14" text-anchor="middle">10.4.0.7</text></g><g id="node8" class="node"><title>ip-10-0-6-0</title><ellipse cx="159.267" cy="-838.637" fill="none" stroke="#000" rx="55.723" ry="58.88"/><text x="159.267" y="-864.937" fill="#000" font-family="Times,serif" font-size="14" text-anchor="middle">ip-10-0-6-0</text><text x="159.267" y="-849.937" fill="#000" font-family="Times,serif" font-size="14" text-anchor="middle">ip-10-0-6-0</text><text x="159.267" y="-834.937" fill="#000" font-family="Times,serif" font-size="14" text-anchor="middle">10.2.7.0/24</text><text x="159.267" y="-819.937" fill="#000" font-family="Times,serif" font-size="14" text-anchor="middle">10.0.6.0</text><text x="159.267" y="-804.937" fill="#000" font-family="Times,serif" font-size="14" text-anchor="middle">10.4.0.8</text></g><g id="node9" class="node"><title>kilo-gcp-worker0.sapyens.org</title><ellipse cx="335.254" cy="-969.069" fill="none" stroke="#000" rx="124.402" ry="58.88"/><text x="335.254" y="-995.369" fill="#000" font-family="Times,serif" font-size="14" text-anchor="middle">kilo-gcp-worker0.sapyens.org</text><text x="335.254" y="-980.369" fill="#000" font-family="Times,serif" font-size="14" text-anchor="middle">kilo-gcp-worker0.sapyens.org</text><text x="335.254" y="-965.369" fill="#000" font-family="Times,serif" font-size="14" text-anchor="middle">10.2.10.0/24</text><text x="335.254" y="-950.369" fill="#000" font-family="Times,serif" font-size="14" text-anchor="middle">10.1.96.6</text><text x="335.254" y="-935.369" fill="#000" font-family="Times,serif" font-size="14" text-anchor="middle">10.4.0.9</text></g><g id="node10" class="node"><title>kilo-gcp-worker1.sapyens.org</title><ellipse cx="592.182" cy="-1000.384" fill="none" stroke="#000" rx="124.402" ry="58.88"/><text x="592.182" y="-1026.684" fill="#000" font-family="Times,serif" font-size="14" text-anchor="middle">kilo-gcp-worker1.sapyens.org</text><text x="592.182" y="-1011.684" fill="#000" font-family="Times,serif" font-size="14" text-anchor="middle">kilo-gcp-worker1.sapyens.org</text><text x="592.182" y="-996.684" fill="#000" font-family="Times,serif" font-size="14" text-anchor="middle">10.2.12.0/24</text><text x="592.182" y="-981.684" fill="#000" font-family="Times,serif" font-size="14" text-anchor="middle">10.1.96.8</text><text x="592.182" y="-966.684" fill="#000" font-family="Times,serif" font-size="14" text-anchor="middle">10.4.0.10</text></g><g id="node11" class="node"><title>kilo-gcp-worker2.sapyens.org</title><ellipse cx="849.157" cy="-902.891" fill="none" stroke="#000" rx="124.402" ry="58.88"/><text x="849.157" y="-929.191" fill="#000" font-family="Times,serif" font-size="14" text-anchor="middle">kilo-gcp-worker2.sapyens.org</text><text x="849.157" y="-914.191" fill="#000" font-family="Times,serif" font-size="14" text-anchor="middle">kilo-gcp-worker2.sapyens.org</text><text x="849.157" y="-899.191" fill="#000" font-family="Times,serif" font-size="14" text-anchor="middle">10.2.9.0/24</text><text x="849.157" y="-884.191" fill="#000" font-family="Times,serif" font-size="14" text-anchor="middle">10.1.96.4</text><text x="849.157" y="-869.191" fill="#000" font-family="Times,serif" font-size="14" text-anchor="middle">10.4.0.11</text></g><g id="node12" class="node"><title>kilo-gcp-worker3.sapyens.org</title><ellipse cx="985.953" cy="-741.693" fill="none" stroke="#000" rx="124.402" ry="58.88"/><text x="985.953" y="-767.993" fill="#000" font-family="Times,serif" font-size="14" text-anchor="middle">kilo-gcp-worker3.sapyens.org</text><text x="985.953" y="-752.993" fill="#000" font-family="Times,serif" font-size="14" text-anchor="middle">kilo-gcp-worker3.sapyens.org</text><text x="985.953" y="-737.993" fill="#000" font-family="Times,serif" font-size="14" text-anchor="middle">10.2.8.0/24</text><text x="985.953" y="-722.993" fill="#000" font-family="Times,serif" font-size="14" text-anchor="middle">10.1.96.5</text><text x="985.953" y="-707.993" fill="#000" font-family="Times,serif" font-size="14" text-anchor="middle">10.4.0.12</text></g><g id="node13" class="node"><title>kilo-gcp-worker4.sapyens.org</title><ellipse cx="805.455" cy="-138.74" fill="none" stroke="#000" rx="124.402" ry="58.88"/><text x="805.455" y="-165.04" fill="#000" font-family="Times,serif" font-size="14" text-anchor="middle">kilo-gcp-worker4.sapyens.org</text><text x="805.455" y="-150.04" fill="#000" font-family="Times,serif" font-size="14" text-anchor="middle">kilo-gcp-worker4.sapyens.org</text><text x="805.455" y="-135.04" fill="#000" font-family="Times,serif" font-size="14" text-anchor="middle">10.2.11.0/24</text><text x="805.455" y="-120.04" fill="#000" font-family="Times,serif" font-size="14" text-anchor="middle">10.1.96.7</text><text x="805.455" y="-105.04" fill="#000" font-family="Times,serif" font-size="14" text-anchor="middle">10.4.0.13</text></g><g id="edge1" class="edge"><title>ip-10-0-15-186-&gt;ip-10-0-29-239</title><path fill="none" stroke="#000" d="M976.9179,-374.4672C985.012,-401.3957 994.3329,-432.4054 1002.4316,-459.3492"/><polygon fill="#000" stroke="#000" points="980.256 -373.415 974.026 -364.846 973.553 -375.43 980.256 -373.415"/><polygon fill="#000" stroke="#000" points="999.125 -460.508 1005.356 -469.077 1005.829 -458.493 999.125 -460.508"/></g><g id="edge2" class="edge"><title>ip-10-0-15-186-&gt;ip-10-0-3-226</title><path fill="none" stroke="#000" d="M894.2698,-264.7048C827.0636,-218.5215 721.0258,-145.6536 654.7322,-100.0974"/><polygon fill="#000" stroke="#000" points="892.377 -267.651 902.601 -270.43 896.342 -261.882 892.377 -267.651"/><polygon fill="#000" stroke="#000" points="656.674 -97.185 646.45 -94.406 652.71 -102.954 656.674 -97.185"/></g><g id="edge3" class="edge"><title>ip-10-0-15-186-&gt;ip-10-0-31-112</title><path fill="none" stroke="#000" d="M883.4548,-279.9555C770.9185,-237.3998 556.9549,-156.4894 444.1428,-113.8294"/><polygon fill="#000" stroke="#000" points="882.371 -283.288 892.963 -283.551 884.847 -276.74 882.371 -283.288"/><polygon fill="#000" stroke="#000" points="445.133 -110.462 434.542 -110.199 442.657 -117.01 445.133 -110.462"/></g><g id="edge4" class="edge"><title>ip-10-0-15-186-&gt;ip-10-0-35-46</title><path fill="none" stroke="#000" d="M876.9659,-298.0359C726.9564,-279.8684 405.1211,-240.8915 259.056,-223.2017"/><polygon fill="#000" stroke="#000" points="876.916 -301.555 887.264 -299.283 877.758 -294.606 876.916 -301.555"/><polygon fill="#000" stroke="#000" points="259.196 -219.693 248.848 -221.965 258.354 -226.642 259.196 -219.693"/></g><g id="edge5" class="edge"><title>ip-10-0-15-186-&gt;ip-10-0-41-215</title><path fill="none" stroke="#000" d="M877.3809,-317.3261C710.3555,-337.5345 324.5704,-384.2106 157.5914,-404.4133"/><polygon fill="#000" stroke="#000" points="878.03 -320.773 887.537 -316.097 877.189 -313.824 878.03 -320.773"/><polygon fill="#000" stroke="#000" points="157.143 -400.942 147.636 -405.618 157.984 -407.891 157.143 -400.942"/></g><g id="edge6" class="edge"><title>ip-10-0-15-186-&gt;ip-10-0-46-197</title><path fill="none" stroke="#000" d="M883.3342,-335.2418C716.4896,-397.7214 310.7586,-549.6588 143.7225,-612.2101"/><polygon fill="#000" stroke="#000" points="884.578 -338.513 892.716 -331.729 882.123 -331.958 884.578 -338.513"/><polygon fill="#000" stroke="#000" points="142.166 -609.056 134.028 -615.841 144.621 -615.611 142.166 -609.056"/></g><g id="edge7" class="edge"><title>ip-10-0-15-186-&gt;ip-10-0-6-0</title><path fill="none" stroke="#000" d="M893.1798,-350.0956C741.2571,-451.2253 359.4987,-705.349 215.4559,-801.2334"/><polygon fill="#000" stroke="#000" points="895.332 -352.868 901.716 -344.413 891.453 -347.041 895.332 -352.868"/><polygon fill="#000" stroke="#000" points="213.11 -798.59 206.725 -807.045 216.989 -804.417 213.11 -798.59"/></g><g id="edge8" class="edge"><title>ip-10-0-15-186-&gt;kilo-gcp-worker0.sapyens.org</title><path fill="none" stroke="#000" d="M906.2867,-361.511C791.8608,-483.256 513.66,-779.2517 392.8433,-907.7964"/><polygon fill="#000" stroke="#000" points="909.092 -363.637 913.39 -353.953 903.991 -358.843 909.092 -363.637"/><polygon fill="#000" stroke="#000" points="390.111 -905.593 385.813 -915.276 395.212 -910.387 390.111 -905.593"/></g><g id="edge9" class="edge"><title>ip-10-0-15-186-&gt;kilo-gcp-worker1.sapyens.org</title><path fill="none" stroke="#000" d="M923.844,-370.4085C855.1089,-500.9672 697.1879,-800.9298 626.9551,-934.3332"/><polygon fill="#000" stroke="#000" points="926.979 -371.966 928.541 -361.487 920.785 -368.705 926.979 -371.966"/><polygon fill="#000" stroke="#000" points="623.817 -932.782 622.255 -943.261 630.01 -936.043 623.817 -932.782"/></g><g id="edge10" class="edge"><title>ip-10-0-15-186-&gt;kilo-gcp-worker2.sapyens.org</title><path fill="none" stroke="#000" d="M944.5247,-375.8405C923.8455,-490.1245 882.3978,-719.1863 861.6253,-833.9865"/><polygon fill="#000" stroke="#000" points="947.994 -376.326 946.33 -365.863 941.105 -375.08 947.994 -376.326"/><polygon fill="#000" stroke="#000" points="858.139 -833.599 859.802 -844.062 865.027 -834.845 858.139 -833.599"/></g><g id="edge11" class="edge"><title>ip-10-0-15-186-&gt;kilo-gcp-worker3.sapyens.org</title><path fill="none" stroke="#000" d="M961.4794,-376.7142C966.9184,-457.8285 975.891,-591.6386 981.3287,-672.7337"/><polygon fill="#000" stroke="#000" points="964.969 -376.435 960.807 -366.691 957.984 -376.903 964.969 -376.435"/><polygon fill="#000" stroke="#000" points="977.845 -673.098 982.006 -682.841 984.83 -672.63 977.845 -673.098"/></g><g id="edge12" class="edge"><title>ip-10-0-15-186-&gt;kilo-gcp-worker4.sapyens.org</title><path fill="none" stroke="#000" d="M907.9337,-253.114C892.9767,-236.421 876.4185,-217.9408 861.0517,-200.7904"/><polygon fill="#000" stroke="#000" points="905.4 -255.531 914.68 -260.643 910.613 -250.86 905.4 -255.531"/><polygon fill="#000" stroke="#000" points="863.365 -198.127 854.085 -193.015 858.152 -202.799 863.365 -198.127"/></g><g id="edge13" class="edge"><title>ip-10-0-29-239-&gt;ip-10-0-3-226</title><path fill="none" stroke="#000" d="M972.5592,-471.6617C889.7388,-381.1989 725.0777,-201.3435 643.1374,-111.842"/><polygon fill="#000" stroke="#000" points="970.204 -474.272 979.538 -479.285 975.367 -469.545 970.204 -474.272"/><polygon fill="#000" stroke="#000" points="645.522 -109.263 636.188 -104.251 640.359 -113.99 645.522 -109.263"/></g><g id="edge14" class="edge"><title>ip-10-0-29-239-&gt;ip-10-0-31-112</title><path fill="none" stroke="#000" d="M959.2288,-483.5125C834.4253,-399.2542 557.9744,-212.6144 433.3627,-128.4855"/><polygon fill="#000" stroke="#000" points="957.528 -486.587 967.774 -489.282 961.444 -480.785 957.528 -486.587"/><polygon fill="#000" stroke="#000" points="435.264 -125.546 425.017 -122.851 431.347 -131.348 435.264 -125.546"/></g><g id="edge15" class="edge"><title>ip-10-0-29-239-&gt;ip-10-0-35-46</title><path fill="none" stroke="#000" d="M949.0024,-498.8777C788.8637,-439.2564 410.4454,-298.3672 253.8863,-240.0786"/><polygon fill="#000" stroke="#000" points="947.905 -502.204 958.498 -502.413 950.348 -495.644 947.905 -502.204"/><polygon fill="#000" stroke="#000" points="254.941 -236.737 244.348 -236.528 252.499 -243.297 254.941 -236.737"/></g><g id="edge16" class="edge"><title>ip-10-0-29-239-&gt;ip-10-0-41-215</title><path fill="none" stroke="#000" d="M943.0927,-516.8152C765.0891,-495.66 335.9811,-444.6618 157.8058,-423.4863"/><polygon fill="#000" stroke="#000" points="942.758 -520.3 953.101 -518.005 943.584 -513.349 942.758 -520.3"/><polygon fill="#000" stroke="#000" points="158.06 -419.992 147.717 -422.287 157.234 -426.943 158.06 -419.992"/></g><g id="edge17" class="edge"><title>ip-10-0-29-239-&gt;ip-10-0-46-197</title><path fill="none" stroke="#000" d="M942.7953,-535.7648C763.2956,-557.1642 329.2355,-608.9115 149.7432,-630.31"/><polygon fill="#000" stroke="#000" points="943.371 -539.221 952.886 -534.562 942.542 -532.27 943.371 -539.221"/><polygon fill="#000" stroke="#000" points="149.097 -626.862 139.582 -631.521 149.925 -633.813 149.097 -626.862"/></g><g id="edge18" class="edge"><title>ip-10-0-29-239-&gt;ip-10-0-6-0</title><path fill="none" stroke="#000" d="M948.6027,-553.013C781.5036,-613.4784 377.2215,-759.7691 221.6864,-816.0499"/><polygon fill="#000" stroke="#000" points="949.797 -556.303 958.01 -549.609 947.416 -549.721 949.797 -556.303"/><polygon fill="#000" stroke="#000" points="220.461 -812.771 212.249 -819.465 222.843 -819.354 220.461 -812.771"/></g><g id="edge19" class="edge"><title>ip-10-0-29-239-&gt;kilo-gcp-worker0.sapyens.org</title><path fill="none" stroke="#000" d="M958.3112,-567.6412C832.9193,-648.4296 555.7324,-827.0177 417.2842,-916.2182"/><polygon fill="#000" stroke="#000" points="960.371 -570.478 966.881 -562.12 956.579 -564.593 960.371 -570.478"/><polygon fill="#000" stroke="#000" points="415.284 -913.343 408.773 -921.702 419.075 -919.228 415.284 -913.343"/></g><g id="edge20" class="edge"><title>ip-10-0-29-239-&gt;kilo-gcp-worker1.sapyens.org</title><path fill="none" stroke="#000" d="M973.3105,-580.4964C892.6762,-669.3307 732.9619,-845.2869 648.1494,-938.7243"/><polygon fill="#000" stroke="#000" points="975.971 -582.773 980.1 -573.016 970.788 -578.068 975.971 -582.773"/><polygon fill="#000" stroke="#000" points="645.307 -936.648 641.178 -946.405 650.49 -941.353 645.307 -936.648"/></g><g id="edge21" class="edge"><title>ip-10-0-29-239-&gt;kilo-gcp-worker2.sapyens.org</title><path fill="none" stroke="#000" d="M993.0206,-590.3866C961.5147,-658.8247 911.8303,-766.7506 879.8739,-836.1673"/><polygon fill="#000" stroke="#000" points="996.329 -591.571 997.331 -581.023 989.97 -588.643 996.329 -591.571"/><polygon fill="#000" stroke="#000" points="876.683 -834.73 875.68 -845.277 883.041 -837.657 876.683 -834.73"/></g><g id="edge22" class="edge"><title>ip-10-0-29-239-&gt;kilo-gcp-worker3.sapyens.org</title><path fill="none" stroke="#000" d="M1010.9647,-594.4273C1006.7174,-619.4342 1001.9094,-647.7432 997.6516,-672.812"/><polygon fill="#000" stroke="#000" points="1014.417 -595.002 1012.641 -584.558 1007.516 -593.83 1014.417 -595.002"/><polygon fill="#000" stroke="#000" points="994.15 -672.527 995.926 -682.972 1001.051 -673.699 994.15 -672.527"/></g><g id="edge23" class="edge"><title>ip-10-0-29-239-&gt;kilo-gcp-worker4.sapyens.org</title><path fill="none" stroke="#000" d="M987.6658,-463.9998C947.8901,-392.9973 883.1241,-277.3855 842.4756,-204.8252"/><polygon fill="#000" stroke="#000" points="984.645 -465.768 992.586 -472.782 990.752 -462.347 984.645 -465.768"/><polygon fill="#000" stroke="#000" points="845.337 -202.772 837.396 -195.758 839.23 -206.193 845.337 -202.772"/></g><g id="edge24" class="edge"><title>ip-10-0-3-226-&gt;ip-10-0-31-112</title><path fill="none" stroke="#000" d="M519.8292,-67.7498C497.3534,-70.4777 472.6081,-73.481 449.827,-76.246"/><polygon fill="#000" stroke="#000" points="520.426 -71.203 529.931 -66.524 519.582 -64.254 520.426 -71.203"/><polygon fill="#000" stroke="#000" points="449.362 -72.777 439.856 -77.456 450.205 -79.726 449.362 -72.777"/></g><g id="edge25" class="edge"><title>ip-10-0-3-226-&gt;ip-10-0-35-46</title><path fill="none" stroke="#000" d="M525.024,-85.0046C449.5131,-113.6153 329.5282,-159.0768 253.917,-187.7254"/><polygon fill="#000" stroke="#000" points="526.269 -88.276 534.38 -81.46 523.789 -81.73 526.269 -88.276"/><polygon fill="#000" stroke="#000" points="252.577 -184.49 244.466 -191.306 255.057 -191.036 252.577 -184.49"/></g><g id="edge26" class="edge"><title>ip-10-0-3-226-&gt;ip-10-0-41-215</title><path fill="none" stroke="#000" d="M534.3006,-100.1038C435.7652,-167.9183 240.9691,-301.9818 140.8383,-370.8943"/><polygon fill="#000" stroke="#000" points="536.353 -102.94 542.607 -94.387 532.385 -97.174 536.353 -102.94"/><polygon fill="#000" stroke="#000" points="138.583 -368.198 132.329 -376.751 142.551 -373.964 138.583 -368.198"/></g><g id="edge27" class="edge"><title>ip-10-0-3-226-&gt;ip-10-0-46-197</title><path fill="none" stroke="#000" d="M546.5283,-111.8166C447.1349,-221.9466 219.5471,-474.1188 119.1403,-585.3717"/><polygon fill="#000" stroke="#000" points="549.22 -114.059 553.321 -104.29 544.023 -109.369 549.22 -114.059"/><polygon fill="#000" stroke="#000" points="116.525 -583.045 112.424 -592.814 121.722 -587.735 116.525 -583.045"/></g><g id="edge28" class="edge"><title>ip-10-0-3-226-&gt;ip-10-0-6-0</title><path fill="none" stroke="#000" d="M559.9989,-120.4763C478.1769,-267.1112 273.109,-634.6174 192.5254,-779.0329"/><polygon fill="#000" stroke="#000" points="563.258 -121.818 565.075 -111.38 557.145 -118.407 563.258 -121.818"/><polygon fill="#000" stroke="#000" points="189.446 -777.368 187.63 -787.806 195.559 -780.779 189.446 -777.368"/></g><g id="edge29" class="edge"><title>ip-10-0-3-226-&gt;kilo-gcp-worker0.sapyens.org</title><path fill="none" stroke="#000" d="M575.5156,-125.2772C527.7616,-292.9881 402.9148,-731.4473 354.6722,-900.874"/><polygon fill="#000" stroke="#000" points="578.888 -126.214 578.26 -115.638 572.155 -124.297 578.888 -126.214"/><polygon fill="#000" stroke="#000" points="351.254 -900.098 351.882 -910.675 357.986 -902.015 351.254 -900.098"/></g><g id="edge30" class="edge"><title>ip-10-0-3-226-&gt;kilo-gcp-worker1.sapyens.org</title><path fill="none" stroke="#000" d="M594.3078,-127.5984C593.8838,-301.6292 592.7737,-757.3625 592.3496,-931.4357"/><polygon fill="#000" stroke="#000" points="597.808 -127.606 594.332 -117.597 590.808 -127.588 597.808 -127.606"/><polygon fill="#000" stroke="#000" points="588.85 -931.49 592.325 -941.499 595.85 -931.507 588.85 -931.49"/></g><g id="edge31" class="edge"><title>ip-10-0-3-226-&gt;kilo-gcp-worker2.sapyens.org</title><path fill="none" stroke="#000" d="M614.5263,-125.1523C661.9951,-282.4985 780.8465,-676.4585 828.7101,-835.1135"/><polygon fill="#000" stroke="#000" points="617.821 -123.954 611.582 -115.391 611.119 -125.976 617.821 -123.954"/><polygon fill="#000" stroke="#000" points="825.383 -836.202 831.622 -844.765 832.084 -834.18 825.383 -836.202"/></g><g id="edge32" class="edge"><title>ip-10-0-3-226-&gt;kilo-gcp-worker3.sapyens.org</title><path fill="none" stroke="#000" d="M629.3948,-119.6126C702.7724,-247.6333 872.4364,-543.643 948.2122,-675.8477"/><polygon fill="#000" stroke="#000" points="632.392 -117.803 624.383 -110.868 626.319 -121.284 632.392 -117.803"/><polygon fill="#000" stroke="#000" points="945.275 -677.762 953.284 -684.697 951.348 -674.281 945.275 -677.762"/></g><g id="edge33" class="edge"><title>ip-10-0-3-226-&gt;kilo-gcp-worker4.sapyens.org</title><path fill="none" stroke="#000" d="M664.2198,-85.1524C675.317,-89.3629 687.0128,-93.8005 698.7288,-98.2459"/><polygon fill="#000" stroke="#000" points="665.243 -81.797 654.651 -81.522 662.759 -88.342 665.243 -81.797"/><polygon fill="#000" stroke="#000" points="697.527 -101.533 708.118 -101.808 700.01 -94.989 697.527 -101.533"/></g><g id="edge34" class="edge"><title>ip-10-0-31-112-&gt;ip-10-0-35-46</title><path fill="none" stroke="#000" d="M307.5393,-129.1423C287.1964,-143.1619 264.6847,-158.6763 244.5228,-172.5712"/><polygon fill="#000" stroke="#000" points="309.716 -131.893 315.964 -123.336 305.744 -126.129 309.716 -131.893"/><polygon fill="#000" stroke="#000" points="242.287 -169.861 236.039 -178.418 246.259 -175.625 242.287 -169.861"/></g><g id="edge35" class="edge"><title>ip-10-0-31-112-&gt;ip-10-0-41-215</title><path fill="none" stroke="#000" d="M321.428,-140.7799C267.3758,-201.4955 180.7993,-298.7447 126.8282,-359.3691"/><polygon fill="#000" stroke="#000" points="324.086 -143.058 328.121 -133.261 318.858 -138.403 324.086 -143.058"/><polygon fill="#000" stroke="#000" points="124.122 -357.145 120.087 -366.941 129.351 -361.799 124.122 -357.145"/></g><g id="edge36" class="edge"><title>ip-10-0-31-112-&gt;ip-10-0-46-197</title><path fill="none" stroke="#000" d="M336.3572,-148.4853C278.5907,-255.0446 161.7889,-470.5039 103.9856,-577.1312"/><polygon fill="#000" stroke="#000" points="339.531 -149.975 341.22 -139.515 333.377 -146.638 339.531 -149.975"/><polygon fill="#000" stroke="#000" points="100.774 -575.712 99.085 -586.172 106.927 -579.048 100.774 -575.712"/></g><g id="edge37" class="edge"><title>ip-10-0-31-112-&gt;ip-10-0-6-0</title><path fill="none" stroke="#000" d="M351.5104,-152.8722C311.4024,-295.9438 217.7702,-629.9449 177.841,-772.3787"/><polygon fill="#000" stroke="#000" points="354.922 -153.669 354.251 -143.095 348.182 -151.78 354.922 -153.669"/><polygon fill="#000" stroke="#000" points="174.39 -771.724 175.06 -782.298 181.13 -773.614 174.39 -771.724"/></g><g id="edge38" class="edge"><title>ip-10-0-31-112-&gt;kilo-gcp-worker0.sapyens.org</title><path fill="none" stroke="#000" d="M367.5398,-155.1126C360.9919,-320.1921 344.5183,-735.5128 337.9852,-900.2221"/><polygon fill="#000" stroke="#000" points="371.047 -155.005 367.946 -144.875 364.052 -154.728 371.047 -155.005"/><polygon fill="#000" stroke="#000" points="334.487 -900.103 337.588 -910.234 341.482 -900.38 334.487 -900.103"/></g><g id="edge39" class="edge"><title>ip-10-0-31-112-&gt;kilo-gcp-worker1.sapyens.org</title><path fill="none" stroke="#000" d="M386.666,-153.4096C427.6619,-322.3623 534.3473,-762.0358 575.5789,-931.9602"/><polygon fill="#000" stroke="#000" points="390.009 -152.344 384.25 -143.452 383.207 -153.995 390.009 -152.344"/><polygon fill="#000" stroke="#000" points="572.205 -932.897 577.964 -941.79 579.007 -931.246 572.205 -932.897"/></g><g id="edge40" class="edge"><title>ip-10-0-31-112-&gt;kilo-gcp-worker2.sapyens.org</title><path fill="none" stroke="#000" d="M406.5443,-147.761C494.8152,-298.3574 720.2498,-682.965 810.7256,-837.3232"/><polygon fill="#000" stroke="#000" points="409.413 -145.733 401.336 -138.876 403.373 -149.273 409.413 -145.733"/><polygon fill="#000" stroke="#000" points="807.893 -839.413 815.97 -846.27 813.932 -835.873 807.893 -839.413"/></g><g id="edge41" class="edge"><title>ip-10-0-31-112-&gt;kilo-gcp-worker3.sapyens.org</title><path fill="none" stroke="#000" d="M420.8734,-139.7854C534.4148,-260.7267 808.9224,-553.1249 928.5841,-680.5854"/><polygon fill="#000" stroke="#000" points="423.219 -137.17 413.823 -132.275 418.116 -141.962 423.219 -137.17"/><polygon fill="#000" stroke="#000" points="926.152 -683.109 935.548 -688.004 931.255 -678.317 926.152 -683.109"/></g><g id="edge42" class="edge"><title>ip-10-0-31-112-&gt;kilo-gcp-worker4.sapyens.org</title><path fill="none" stroke="#000" d="M450.0145,-95.5811C512.7758,-103.2018 601.5552,-113.9818 674.6846,-122.8614"/><polygon fill="#000" stroke="#000" points="450.069 -92.062 439.72 -94.331 449.225 -99.011 450.069 -92.062"/><polygon fill="#000" stroke="#000" points="674.546 -126.37 684.895 -124.101 675.39 -119.421 674.546 -126.37"/></g><g id="edge43" class="edge"><title>ip-10-0-35-46-&gt;ip-10-0-41-215</title><path fill="none" stroke="#000" d="M151.3143,-276.1465C138.6247,-300.0671 124.1292,-327.392 111.4077,-351.3728"/><polygon fill="#000" stroke="#000" points="154.477 -277.652 156.072 -267.178 148.294 -274.372 154.477 -277.652"/><polygon fill="#000" stroke="#000" points="108.221 -349.912 106.626 -360.386 114.405 -353.192 108.221 -349.912"/></g><g id="edge44" class="edge"><title>ip-10-0-35-46-&gt;ip-10-0-46-197</title><path fill="none" stroke="#000" d="M166.1695,-281.3772C144.8185,-360.9589 109.4741,-492.6978 88.0989,-572.3696"/><polygon fill="#000" stroke="#000" points="169.596 -282.112 168.807 -271.546 162.835 -280.298 169.596 -282.112"/><polygon fill="#000" stroke="#000" points="84.646 -571.733 85.435 -582.298 91.407 -573.547 84.646 -571.733"/></g><g id="edge45" class="edge"><title>ip-10-0-35-46-&gt;ip-10-0-6-0</title><path fill="none" stroke="#000" d="M181.4597,-282.9813C176.6668,-402.9821 166.836,-649.1191 162.032,-769.3968"/><polygon fill="#000" stroke="#000" points="184.961 -283.02 181.863 -272.889 177.966 -282.741 184.961 -283.02"/><polygon fill="#000" stroke="#000" points="158.527 -769.455 161.625 -779.587 165.521 -769.734 158.527 -769.455"/></g><g id="edge46" class="edge"><title>ip-10-0-35-46-&gt;kilo-gcp-worker0.sapyens.org</title><path fill="none" stroke="#000" d="M197.8568,-282.3479C226.5466,-425.7409 292.8269,-757.014 321.5587,-900.6172"/><polygon fill="#000" stroke="#000" points="201.205 -281.241 195.811 -272.122 194.341 -282.614 201.205 -281.241"/><polygon fill="#000" stroke="#000" points="318.168 -901.508 323.562 -910.627 325.031 -900.135 318.168 -901.508"/></g><g id="edge47" class="edge"><title>ip-10-0-35-46-&gt;kilo-gcp-worker1.sapyens.org</title><path fill="none" stroke="#000" d="M216.6287,-276.6159C292.3283,-422.5045 480.1696,-784.5134 557.783,-934.0904"/><polygon fill="#000" stroke="#000" points="219.643 -274.825 211.93 -267.561 213.429 -278.049 219.643 -274.825"/><polygon fill="#000" stroke="#000" points="554.799 -935.938 562.511 -943.202 561.012 -932.714 554.799 -935.938"/></g><g id="edge48" class="edge"><title>ip-10-0-35-46-&gt;kilo-gcp-worker2.sapyens.org</title><path fill="none" stroke="#000" d="M234.1816,-265.8984C354.782,-390.8163 661.3303,-708.3392 790.4266,-842.0572"/><polygon fill="#000" stroke="#000" points="236.535 -263.296 227.071 -258.533 231.499 -268.159 236.535 -263.296"/><polygon fill="#000" stroke="#000" points="788.092 -844.678 797.556 -849.442 793.128 -839.816 788.092 -844.678"/></g><g id="edge49" class="edge"><title>ip-10-0-35-46-&gt;kilo-gcp-worker3.sapyens.org</title><path fill="none" stroke="#000" d="M245.2333,-254.2916C388.0172,-348.2449 743.9105,-582.4266 904.7564,-688.2649"/><polygon fill="#000" stroke="#000" points="247.092 -251.325 236.814 -248.752 243.244 -257.172 247.092 -251.325"/><polygon fill="#000" stroke="#000" points="902.923 -691.248 913.201 -693.821 906.771 -685.401 902.923 -691.248"/></g><g id="edge50" class="edge"><title>ip-10-0-35-46-&gt;kilo-gcp-worker4.sapyens.org</title><path fill="none" stroke="#000" d="M258.8734,-205.0756C361.692,-192.5971 548.4576,-169.9303 674.7183,-154.6068"/><polygon fill="#000" stroke="#000" points="258.441 -201.602 248.935 -206.282 259.284 -208.551 258.441 -201.602"/><polygon fill="#000" stroke="#000" points="675.335 -158.058 684.84 -153.378 674.491 -151.109 675.335 -158.058"/></g><g id="edge51" class="edge"><title>ip-10-0-41-215-&gt;ip-10-0-46-197</title><path fill="none" stroke="#000" d="M75.672,-483.1477C74.6638,-511.0143 73.5032,-543.0907 72.4959,-570.9328"/><polygon fill="#000" stroke="#000" points="79.184 -482.877 76.048 -472.757 72.189 -482.624 79.184 -482.877"/><polygon fill="#000" stroke="#000" points="68.996 -570.863 72.132 -580.983 75.992 -571.116 68.996 -570.863"/></g><g id="edge52" class="edge"><title>ip-10-0-41-215-&gt;ip-10-0-6-0</title><path fill="none" stroke="#000" d="M91.1998,-482.2317C106.358,-561.6018 131.2336,-691.8531 146.3461,-770.9843"/><polygon fill="#000" stroke="#000" points="94.593 -481.339 89.279 -472.173 87.717 -482.652 94.593 -481.339"/><polygon fill="#000" stroke="#000" points="142.916 -771.683 148.23 -780.849 149.792 -770.37 142.916 -771.683"/></g><g id="edge53" class="edge"><title>ip-10-0-41-215-&gt;kilo-gcp-worker0.sapyens.org</title><path fill="none" stroke="#000" d="M107.8063,-478.0013C156.8511,-583.8906 254.4291,-794.5647 304.3185,-902.2774"/><polygon fill="#000" stroke="#000" points="110.905 -476.364 103.527 -468.761 104.553 -479.306 110.905 -476.364"/><polygon fill="#000" stroke="#000" points="301.178 -903.825 308.557 -911.428 307.53 -900.883 301.178 -903.825"/></g><g id="edge54" class="edge"><title>ip-10-0-41-215-&gt;kilo-gcp-worker1.sapyens.org</title><path fill="none" stroke="#000" d="M126.6678,-469.3431C222.8421,-579.0551 437.1177,-823.4925 537.8604,-938.416"/><polygon fill="#000" stroke="#000" points="129.025 -466.723 119.801 -461.51 123.761 -471.337 129.025 -466.723"/><polygon fill="#000" stroke="#000" points="535.398 -940.917 544.622 -946.13 540.662 -936.303 535.398 -940.917"/></g><g id="edge55" class="edge"><title>ip-10-0-41-215-&gt;kilo-gcp-worker2.sapyens.org</title><path fill="none" stroke="#000" d="M142.9122,-455.0722C282.4946,-543.5791 611.6161,-752.2696 766.2104,-850.2953"/><polygon fill="#000" stroke="#000" points="144.561 -451.973 134.241 -449.574 140.812 -457.885 144.561 -451.973"/><polygon fill="#000" stroke="#000" points="764.469 -853.336 774.789 -855.735 768.218 -847.424 764.469 -853.336"/></g><g id="edge56" class="edge"><title>ip-10-0-41-215-&gt;kilo-gcp-worker3.sapyens.org</title><path fill="none" stroke="#000" d="M152.1798,-440.7355C312.0768,-498.4517 690.4184,-635.0173 877.44,-702.5244"/><polygon fill="#000" stroke="#000" points="153.325 -437.428 142.731 -437.325 150.948 -444.012 153.325 -437.428"/><polygon fill="#000" stroke="#000" points="876.425 -705.879 887.02 -705.982 878.802 -699.295 876.425 -705.879"/></g><g id="edge57" class="edge"><title>ip-10-0-41-215-&gt;kilo-gcp-worker4.sapyens.org</title><path fill="none" stroke="#000" d="M151.7069,-386.189C280.8277,-337.3157 548.7778,-235.8943 698.4423,-179.2451"/><polygon fill="#000" stroke="#000" points="150.19 -383.021 142.077 -389.834 152.668 -389.567 150.19 -383.021"/><polygon fill="#000" stroke="#000" points="700.013 -182.393 708.127 -175.579 697.535 -175.846 700.013 -182.393"/></g><g id="edge58" class="edge"><title>ip-10-0-46-197-&gt;ip-10-0-6-0</title><path fill="none" stroke="#000" d="M98.8492,-704.0659C109.2272,-727.1813 120.9122,-753.2081 131.221,-776.1694"/><polygon fill="#000" stroke="#000" points="102.038 -702.624 94.75 -694.935 95.653 -705.491 102.038 -702.624"/><polygon fill="#000" stroke="#000" points="128.108 -777.781 135.397 -785.47 134.494 -774.913 128.108 -777.781"/></g><g id="edge59" class="edge"><title>ip-10-0-46-197-&gt;kilo-gcp-worker0.sapyens.org</title><path fill="none" stroke="#000" d="M115.8695,-696.7491C162.8917,-755.1172 235.8407,-845.6679 284.5521,-906.1328"/><polygon fill="#000" stroke="#000" points="118.427 -694.345 109.428 -688.753 112.976 -698.736 118.427 -694.345"/><polygon fill="#000" stroke="#000" points="281.963 -908.498 290.962 -914.09 287.414 -904.106 281.963 -908.498"/></g><g id="edge60" class="edge"><title>ip-10-0-46-197-&gt;kilo-gcp-worker1.sapyens.org</title><path fill="none" stroke="#000" d="M132.7373,-683.1343C228.108,-748.9884 409.4465,-874.2038 513.5085,-946.0593"/><polygon fill="#000" stroke="#000" points="134.626 -680.185 124.408 -677.383 130.648 -685.945 134.626 -680.185"/><polygon fill="#000" stroke="#000" points="511.572 -948.975 521.79 -951.778 515.549 -943.215 511.572 -948.975"/></g><g id="edge61" class="edge"><title>ip-10-0-46-197-&gt;kilo-gcp-worker2.sapyens.org</title><path fill="none" stroke="#000" d="M144.9308,-665.1148C282.6429,-711.612 576.6101,-810.8674 737.7763,-865.2837"/><polygon fill="#000" stroke="#000" points="145.688 -661.676 135.094 -661.793 143.448 -668.308 145.688 -661.676"/><polygon fill="#000" stroke="#000" points="737.128 -868.759 747.722 -868.642 739.367 -862.127 737.128 -868.759"/></g><g id="edge62" class="edge"><title>ip-10-0-46-197-&gt;kilo-gcp-worker3.sapyens.org</title><path fill="none" stroke="#000" d="M149.8981,-648.7026C307.923,-666.2789 661.757,-705.6342 854.5761,-727.0806"/><polygon fill="#000" stroke="#000" points="149.926 -645.184 139.6 -647.557 149.152 -652.141 149.926 -645.184"/><polygon fill="#000" stroke="#000" points="854.444 -730.587 864.77 -728.214 855.218 -723.63 854.444 -730.587"/></g><g id="edge63" class="edge"><title>ip-10-0-46-197-&gt;kilo-gcp-worker4.sapyens.org</title><path fill="none" stroke="#000" d="M132.6883,-597.108C266.2215,-506.1294 578.5381,-293.3424 725.8606,-192.9689"/><polygon fill="#000" stroke="#000" points="130.675 -594.244 124.382 -602.768 134.617 -600.029 130.675 -594.244"/><polygon fill="#000" stroke="#000" points="728.172 -195.629 734.466 -187.106 724.231 -189.844 728.172 -195.629"/></g><g id="edge64" class="edge"><title>ip-10-0-6-0-&gt;kilo-gcp-worker0.sapyens.org</title><path fill="none" stroke="#000" d="M213.3613,-878.7288C228.0989,-889.6515 244.3342,-901.6841 260.0171,-913.3074"/><polygon fill="#000" stroke="#000" points="215.164 -875.708 205.046 -872.566 210.996 -881.332 215.164 -875.708"/><polygon fill="#000" stroke="#000" points="258.039 -916.198 268.157 -919.34 262.207 -910.574 258.039 -916.198"/></g><g id="edge65" class="edge"><title>ip-10-0-6-0-&gt;kilo-gcp-worker1.sapyens.org</title><path fill="none" stroke="#000" d="M221.6713,-861.9526C290.3875,-887.6265 402.0984,-929.3642 484.9165,-960.3069"/><polygon fill="#000" stroke="#000" points="222.51 -858.53 211.918 -858.308 220.06 -865.087 222.51 -858.53"/><polygon fill="#000" stroke="#000" points="483.767 -963.614 494.359 -963.835 486.216 -957.056 483.767 -963.614"/></g><g id="edge66" class="edge"><title>ip-10-0-6-0-&gt;kilo-gcp-worker2.sapyens.org</title><path fill="none" stroke="#000" d="M225.2319,-844.7805C337.9396,-855.2777 569.638,-876.8572 716.7745,-890.5609"/><polygon fill="#000" stroke="#000" points="225.42 -841.283 215.139 -843.841 224.771 -848.253 225.42 -841.283"/><polygon fill="#000" stroke="#000" points="716.499 -894.05 726.78 -891.493 717.148 -887.081 716.499 -894.05"/></g><g id="edge67" class="edge"><title>ip-10-0-6-0-&gt;kilo-gcp-worker3.sapyens.org</title><path fill="none" stroke="#000" d="M224.8423,-830.9468C360.8705,-814.9951 675.9585,-778.0454 855.1577,-757.031"/><polygon fill="#000" stroke="#000" points="224.316 -827.485 214.791 -832.125 225.131 -834.437 224.316 -827.485"/><polygon fill="#000" stroke="#000" points="855.649 -760.497 865.173 -755.856 854.834 -753.545 855.649 -760.497"/></g><g id="edge68" class="edge"><title>ip-10-0-6-0-&gt;kilo-gcp-worker4.sapyens.org</title><path fill="none" stroke="#000" d="M205.0173,-789.0833C320.273,-664.248 622.3419,-337.0723 748.6515,-200.2643"/><polygon fill="#000" stroke="#000" points="202.445 -786.71 198.233 -796.431 207.588 -791.458 202.445 -786.71"/><polygon fill="#000" stroke="#000" points="751.413 -202.434 755.624 -192.712 746.269 -197.685 751.413 -202.434"/></g><g id="edge69" class="edge"><title>kilo-gcp-worker0.sapyens.org-&gt;kilo-gcp-worker1.sapyens.org</title><path fill="none" stroke="#000" d="M466.099,-985.0165C466.2112,-985.0301 466.3234,-985.0438 466.4356,-985.0575"/><polygon fill="#000" stroke="#000" points="466.169 -981.499 455.819 -983.764 465.322 -988.448 466.169 -981.499"/><polygon fill="#000" stroke="#000" points="461.132 -987.937 471.482 -985.673 461.979 -980.988 461.132 -987.937"/></g><g id="edge70" class="edge"><title>kilo-gcp-worker0.sapyens.org-&gt;kilo-gcp-worker2.sapyens.org</title><path fill="none" stroke="#000" d="M465.6757,-952.2738C543.1311,-942.2994 641.028,-929.6926 718.5211,-919.7134"/><polygon fill="#000" stroke="#000" points="464.888 -948.846 455.417 -953.595 465.783 -955.789 464.888 -948.846"/><polygon fill="#000" stroke="#000" points="719.361 -923.134 728.832 -918.386 718.467 -916.192 719.361 -923.134"/></g><g id="edge71" class="edge"><title>kilo-gcp-worker0.sapyens.org-&gt;kilo-gcp-worker3.sapyens.org</title><path fill="none" stroke="#000" d="M444.9793,-930.7273C565.0085,-888.7851 756.2574,-821.9563 876.2699,-780.0199"/><polygon fill="#000" stroke="#000" points="443.786 -927.437 435.5 -934.04 446.095 -934.045 443.786 -927.437"/><polygon fill="#000" stroke="#000" points="877.575 -783.271 885.861 -776.669 875.266 -776.663 877.575 -783.271"/></g><g id="edge72" class="edge"><title>kilo-gcp-worker0.sapyens.org-&gt;kilo-gcp-worker4.sapyens.org</title><path fill="none" stroke="#000" d="M372.3204,-903.6139C460.1691,-748.4814 680.2465,-359.8457 768.242,-204.4539"/><polygon fill="#000" stroke="#000" points="369.27 -901.898 367.388 -912.324 375.361 -905.347 369.27 -901.898"/><polygon fill="#000" stroke="#000" points="771.459 -205.875 773.341 -195.449 765.368 -202.426 771.459 -205.875"/></g><g id="edge73" class="edge"><title>kilo-gcp-worker1.sapyens.org-&gt;kilo-gcp-worker2.sapyens.org</title><path fill="none" stroke="#000" d="M699.0011,-959.8578C713.3733,-954.4052 728.1179,-948.8113 742.4875,-943.3596"/><polygon fill="#000" stroke="#000" points="697.441 -956.706 689.333 -963.526 699.924 -963.251 697.441 -956.706"/><polygon fill="#000" stroke="#000" points="743.76 -946.62 751.869 -939.801 741.277 -940.075 743.76 -946.62"/></g><g id="edge74" class="edge"><title>kilo-gcp-worker1.sapyens.org-&gt;kilo-gcp-worker3.sapyens.org</title><path fill="none" stroke="#000" d="M673.3199,-947.0793C741.0473,-902.5853 837.109,-839.4769 904.8317,-794.986"/><polygon fill="#000" stroke="#000" points="671.3 -944.218 664.864 -952.634 675.144 -950.069 671.3 -944.218"/><polygon fill="#000" stroke="#000" points="906.925 -797.798 913.361 -789.383 903.082 -791.948 906.925 -797.798"/></g><g id="edge75" class="edge"><title>kilo-gcp-worker1.sapyens.org-&gt;kilo-gcp-worker4.sapyens.org</title><path fill="none" stroke="#000" d="M609.1524,-931.82C649.1091,-770.3913 748.7396,-367.8742 788.5901,-206.8741"/><polygon fill="#000" stroke="#000" points="605.678 -931.289 606.673 -941.837 612.473 -932.971 605.678 -931.289"/><polygon fill="#000" stroke="#000" points="792.008 -207.631 791.014 -197.083 785.213 -205.95 792.008 -207.631"/></g><g id="edge76" class="edge"><title>kilo-gcp-worker2.sapyens.org-&gt;kilo-gcp-worker3.sapyens.org</title><path fill="none" stroke="#000" d="M902.2495,-840.3276C912.3826,-828.387 922.9881,-815.8896 933.1132,-803.9582"/><polygon fill="#000" stroke="#000" points="899.272 -838.427 895.47 -848.316 904.609 -842.956 899.272 -838.427"/><polygon fill="#000" stroke="#000" points="935.886 -806.1 939.688 -796.211 930.549 -801.571 935.886 -806.1"/></g><g id="edge77" class="edge"><title>kilo-gcp-worker2.sapyens.org-&gt;kilo-gcp-worker4.sapyens.org</title><path fill="none" stroke="#000" d="M845.2083,-833.8403C836.9019,-688.6013 817.7061,-352.9599 809.4016,-207.7533"/><polygon fill="#000" stroke="#000" points="841.735 -834.414 845.801 -844.198 848.724 -834.014 841.735 -834.414"/><polygon fill="#000" stroke="#000" points="812.888 -207.417 808.823 -197.633 805.899 -207.816 812.888 -207.417"/></g><g id="edge78" class="edge"><title>kilo-gcp-worker3.sapyens.org-&gt;kilo-gcp-worker4.sapyens.org</title><path fill="none" stroke="#000" d="M965.5588,-673.5672C930.8356,-557.5745 860.6264,-323.0412 825.8811,-206.9745"/><polygon fill="#000" stroke="#000" points="962.261 -674.755 968.482 -683.332 968.967 -672.748 962.261 -674.755"/><polygon fill="#000" stroke="#000" points="829.156 -205.71 822.935 -197.134 822.45 -207.717 829.156 -205.71"/></g></g></svg>