<svg xmlns="http://www.w3.org/2000/svg" xmlns:xlink="http://www.w3.org/1999/xlink" width="1228" height="883pt" viewBox="0 0 920.97 882.66"><g id="graph0" class="graph" transform="scale(1 1) rotate(0) translate(4 878.6564)"><title>kilo</title><polygon fill="#fff" stroke="transparent" points="-4 4 -4 -878.656 916.968 -878.656 916.968 4 -4 4"/><text x="456.484" y="-859.456" fill="#000" font-family="Times,serif" font-size="14" text-anchor="middle">10.4.0.0/16</text><g id="node1" class="node"><title>ip-10-0-3-226</title><ellipse cx="309.508" cy="-551.743" fill="none" stroke="#000" rx="65.108" ry="58.88"/><text x="309.508" y="-578.043" fill="#000" font-family="Times,serif" font-size="14" text-anchor="middle">aws</text><text x="309.508" y="-563.043" fill="#000" font-family="Times,serif" font-size="14" text-anchor="middle">ip-10-0-3-226</text><text x="309.508" y="-548.043" fill="#000" font-family="Times,serif" font-size="14" text-anchor="middle">10.2.1.0/24</text><text x="309.508" y="-533.043" fill="#000" font-family="Times,serif" font-size="14" text-anchor="middle">10.0.3.226</text><text x="309.508" y="-518.043" fill="#000" font-family="Times,serif" font-size="14" text-anchor="middle">10.4.0.1</text></g><g id="node2" class="node"><title>ip-10-0-15-186</title><ellipse cx="549.013" cy="-629.563" fill="none" stroke="#000" rx="70.007" ry="48.167"/><text x="549.013" y="-648.363" fill="#000" font-family="Times,serif" font-size="14" text-anchor="middle">aws</text><text x="549.013" y="-633.363" fill="#000" font-family="Times,serif" font-size="14" text-anchor="middle">ip-10-0-15-186</text><text x="549.013" y="-618.363" fill="#000" font-family="Times,serif" font-size="14" text-anchor="middle">10.2.3.0/24</text><text x="549.013" y="-603.363" fill="#000" font-family="Times,serif" font-size="14" text-anchor="middle">10.0.15.186</text></g><g id="node3" class="node"><title>ip-10-0-29-239</title><ellipse cx="457.53" cy="-755.478" fill="none" stroke="#000" rx="70.007" ry="48.167"/><text x="457.53" y="-774.278" fill="#000" font-family="Times,serif" font-size="14" text-anchor="middle">aws</text><text x="457.53" y="-759.278" fill="#000" font-family="Times,serif" font-size="14" text-anchor="middle">ip-10-0-29-239</text><text x="457.53" y="-744.278" fill="#000" font-family="Times,serif" font-size="14" text-anchor="middle">10.2.4.0/24</text><text x="457.53" y="-729.278" fill="#000" font-family="Times,serif" font-size="14" text-anchor="middle">10.0.29.239</text></g><g id="node4" class="node"><title>ip-10-0-31-112</title><ellipse cx="309.508" cy="-803.573" fill="none" stroke="#000" rx="70.007" ry="48.167"/><text x="309.508" y="-822.373" fill="#000" font-family="Times,serif" font-size="14" text-anchor="middle">aws</text><text x="309.508" y="-807.373" fill="#000" font-family="Times,serif" font-size="14" text-anchor="middle">ip-10-0-31-112</text><text x="309.508" y="-792.373" fill="#000" font-family="Times,serif" font-size="14" text-anchor="middle">10.2.5.0/24</text><text x="309.508" y="-777.373" fill="#000" font-family="Times,serif" font-size="14" text-anchor="middle">10.0.31.112</text></g><g id="node5" class="node"><title>ip-10-0-35-46</title><ellipse cx="161.486" cy="-755.478" fill="none" stroke="#000" rx="65.108" ry="48.167"/><text x="161.486" y="-774.278" fill="#000" font-family="Times,serif" font-size="14" text-anchor="middle">aws</text><text x="161.486" y="-759.278" fill="#000" font-family="Times,serif" font-size="14" text-anchor="middle">ip-10-0-35-46</text><text x="161.486" y="-744.278" fill="#000" font-family="Times,serif" font-size="14" text-anchor="middle">10.2.0.0/24</text><text x="161.486" y="-729.278" fill="#000" font-family="Times,serif" font-size="14" text-anchor="middle">10.0.35.46</text></g><g id="node6" class="node"><title>ip-10-0-41-215</title><ellipse cx="70.004" cy="-629.563" fill="none" stroke="#000" rx="70.007" ry="48.167"/><text x="70.004" y="-648.363" fill="#000" font-family="Times,serif" font-size="14" text-anchor="middle">aws</text><text x="70.004" y="-633.363" fill="#000" font-family="Times,serif" font-size="14" text-anchor="middle">ip-10-0-41-215</text><text x="70.004" y="-618.363" fill="#000" font-family="Times,serif" font-size="14" text-anchor="middle">10.2.2.0/24</text><text x="70.004" y="-603.363" fill="#000" font-family="Times,serif" font-size="14" text-anchor="middle">10.0.41.215</text></g><g id="node7" class="node"><title>ip-10-0-46-197</title><ellipse cx="70.004" cy="-473.923" fill="none" stroke="#000" rx="70.007" ry="48.167"/><text x="70.004" y="-492.724" fill="#000" font-family="Times,serif" font-size="14" text-anchor="middle">aws</text><text x="70.004" y="-477.724" fill="#000" font-family="Times,serif" font-size="14" text-anchor="middle">ip-10-0-46-197</text><text x="70.004" y="-462.724" fill="#000" font-family="Times,serif" font-size="14" text-anchor="middle">10.2.6.0/24</text><text x="70.004" y="-447.724" fill="#000" font-family="Times,serif" font-size="14" text-anchor="middle">10.0.46.197</text></g><g id="node8" class="node"><title>ip-10-0-6-0</title><ellipse cx="161.486" cy="-348.009" fill="none" stroke="#000" rx="55.723" ry="48.167"/><text x="161.486" y="-366.808" fill="#000" font-family="Times,serif" font-size="14" text-anchor="middle">aws</text><text x="161.486" y="-351.808" fill="#000" font-family="Times,serif" font-size="14" text-anchor="middle">ip-10-0-6-0</text><text x="161.486" y="-336.808" fill="#000" font-family="Times,serif" font-size="14" text-anchor="middle">10.2.7.0/24</text><text x="161.486" y="-321.808" fill="#000" font-family="Times,serif" font-size="14" text-anchor="middle">10.0.6.0</text></g><g id="node9" class="node"><title>kilo-gcp-worker0.sapyens.org</title><ellipse cx="457.53" cy="-348.009" fill="none" stroke="#000" rx="124.402" ry="58.88"/><text x="457.53" y="-374.308" fill="#000" font-family="Times,serif" font-size="14" text-anchor="middle">gcp</text><text x="457.53" y="-359.308" fill="#000" font-family="Times,serif" font-size="14" text-anchor="middle">kilo-gcp-worker0.sapyens.org</text><text x="457.53" y="-344.308" fill="#000" font-family="Times,serif" font-size="14" text-anchor="middle">10.2.10.0/24</text><text x="457.53" y="-329.308" fill="#000" font-family="Times,serif" font-size="14" text-anchor="middle">10.1.96.6</text><text x="457.53" y="-314.308" fill="#000" font-family="Times,serif" font-size="14" text-anchor="middle">10.4.0.2</text></g><g id="node10" class="node"><title>kilo-gcp-worker1.sapyens.org</title><ellipse cx="309.508" cy="-48.083" fill="none" stroke="#000" rx="124.402" ry="48.167"/><text x="309.508" y="-66.883" fill="#000" font-family="Times,serif" font-size="14" text-anchor="middle">gcp</text><text x="309.508" y="-51.883" fill="#000" font-family="Times,serif" font-size="14" text-anchor="middle">kilo-gcp-worker1.sapyens.org</text><text x="309.508" y="-36.883" fill="#000" font-family="Times,serif" font-size="14" text-anchor="middle">10.2.12.0/24</text><text x="309.508" y="-21.883" fill="#000" font-family="Times,serif" font-size="14" text-anchor="middle">10.1.96.8</text></g><g id="node11" class="node"><title>kilo-gcp-worker2.sapyens.org</title><ellipse cx="605.552" cy="-144.274" fill="none" stroke="#000" rx="124.402" ry="48.167"/><text x="605.552" y="-163.074" fill="#000" font-family="Times,serif" font-size="14" text-anchor="middle">gcp</text><text x="605.552" y="-148.074" fill="#000" font-family="Times,serif" font-size="14" text-anchor="middle">kilo-gcp-worker2.sapyens.org</text><text x="605.552" y="-133.074" fill="#000" font-family="Times,serif" font-size="14" text-anchor="middle">10.2.9.0/24</text><text x="605.552" y="-118.074" fill="#000" font-family="Times,serif" font-size="14" text-anchor="middle">10.1.96.4</text></g><g id="node12" class="node"><title>kilo-gcp-worker4.sapyens.org</title><ellipse cx="788.517" cy="-396.104" fill="none" stroke="#000" rx="124.402" ry="48.167"/><text x="788.517" y="-414.904" fill="#000" font-family="Times,serif" font-size="14" text-anchor="middle">gcp</text><text x="788.517" y="-399.904" fill="#000" font-family="Times,serif" font-size="14" text-anchor="middle">kilo-gcp-worker4.sapyens.org</text><text x="788.517" y="-384.904" fill="#000" font-family="Times,serif" font-size="14" text-anchor="middle">10.2.11.0/24</text><text x="788.517" y="-369.904" fill="#000" font-family="Times,serif" font-size="14" text-anchor="middle">10.1.96.7</text></g><g id="edge1" class="edge"><title>ip-10-0-3-226-&gt;ip-10-0-15-186</title><path fill="none" stroke="#000" d="M380.5671,-574.8317C410.6782,-584.6153 445.7397,-596.0075 476.054,-605.8573"/><polygon fill="#000" stroke="#000" points="381.468 -571.444 370.875 -571.683 379.304 -578.102 381.468 -571.444"/><polygon fill="#000" stroke="#000" points="475.125 -609.236 485.717 -608.997 477.288 -602.578 475.125 -609.236"/></g><g id="edge2" class="edge"><title>ip-10-0-3-226-&gt;ip-10-0-29-239</title><path fill="none" stroke="#000" d="M351.25,-609.196C372.8603,-638.94 399.0348,-674.9661 420.0007,-703.8232"/><polygon fill="#000" stroke="#000" points="354.05 -607.095 345.34 -601.062 348.386 -611.209 354.05 -607.095"/><polygon fill="#000" stroke="#000" points="417.338 -706.114 426.048 -712.146 423.002 -701.999 417.338 -706.114"/></g><g id="edge3" class="edge"><title>ip-10-0-3-226-&gt;ip-10-0-31-112</title><path fill="none" stroke="#000" d="M309.5081,-620.5161C309.5081,-659.5722 309.5081,-707.9377 309.5081,-745.1444"/><polygon fill="#000" stroke="#000" points="313.008 -620.468 309.508 -610.468 306.008 -620.468 313.008 -620.468"/><polygon fill="#000" stroke="#000" points="306.008 -745.326 309.508 -755.326 313.008 -745.326 306.008 -745.326"/></g><g id="edge4" class="edge"><title>ip-10-0-3-226-&gt;ip-10-0-35-46</title><path fill="none" stroke="#000" d="M267.7243,-609.2537C245.958,-639.2125 219.5703,-675.532 198.539,-704.4791"/><polygon fill="#000" stroke="#000" points="270.63 -611.209 273.676 -601.062 264.967 -607.095 270.63 -611.209"/><polygon fill="#000" stroke="#000" points="195.523 -702.675 192.477 -712.823 201.186 -706.79 195.523 -702.675"/></g><g id="edge5" class="edge"><title>ip-10-0-3-226-&gt;ip-10-0-41-215</title><path fill="none" stroke="#000" d="M238.4491,-574.8317C208.3381,-584.6153 173.2765,-596.0075 142.9622,-605.8573"/><polygon fill="#000" stroke="#000" points="239.712 -578.102 248.141 -571.683 237.549 -571.444 239.712 -578.102"/><polygon fill="#000" stroke="#000" points="141.728 -602.578 133.299 -608.997 143.891 -609.236 141.728 -602.578"/></g><g id="edge6" class="edge"><title>ip-10-0-3-226-&gt;ip-10-0-46-197</title><path fill="none" stroke="#000" d="M238.4491,-528.6547C208.3381,-518.8711 173.2765,-507.4789 142.9622,-497.6292"/><polygon fill="#000" stroke="#000" points="237.549 -532.042 248.141 -531.804 239.712 -525.385 237.549 -532.042"/><polygon fill="#000" stroke="#000" points="143.891 -494.251 133.299 -494.489 141.728 -500.908 143.891 -494.251"/></g><g id="edge7" class="edge"><title>ip-10-0-3-226-&gt;ip-10-0-6-0</title><path fill="none" stroke="#000" d="M267.6194,-494.0884C245.4628,-463.5923 218.5406,-426.5371 197.3556,-397.3785"/><polygon fill="#000" stroke="#000" points="264.967 -496.392 273.676 -502.425 270.63 -492.277 264.967 -496.392"/><polygon fill="#000" stroke="#000" points="199.969 -395.021 191.26 -388.988 194.306 -399.136 199.969 -395.021"/></g><g id="edge11" class="edge"><title>ip-10-0-3-226-&gt;kilo-gcp-worker0.sapyens.org</title><path fill="none" stroke="#000" d="M351.3118,-494.2053C369.9012,-468.6193 391.8582,-438.3981 410.9699,-412.0931"/><polygon fill="#000" stroke="#000" points="348.386 -492.277 345.34 -502.425 354.05 -496.392 348.386 -492.277"/><polygon fill="#000" stroke="#000" points="414.021 -413.848 417.067 -403.701 408.358 -409.734 414.021 -413.848"/></g><g id="edge8" class="edge"><title>kilo-gcp-worker0.sapyens.org-&gt;kilo-gcp-worker1.sapyens.org</title><path fill="none" stroke="#000" d="M424.6282,-281.342C398.4344,-228.2676 362.1791,-154.8063 337.3964,-104.591"/><polygon fill="#000" stroke="#000" points="421.601 -283.116 429.165 -290.535 427.878 -280.018 421.601 -283.116"/><polygon fill="#000" stroke="#000" points="340.472 -102.914 332.907 -95.495 334.195 -106.012 340.472 -102.914"/></g><g id="edge9" class="edge"><title>kilo-gcp-worker0.sapyens.org-&gt;kilo-gcp-worker2.sapyens.org</title><path fill="none" stroke="#000" d="M504.074,-283.9462C523.9227,-256.6268 546.8428,-225.0801 565.8727,-198.8877"/><polygon fill="#000" stroke="#000" points="501.024 -282.19 497.978 -292.337 506.687 -286.304 501.024 -282.19"/><polygon fill="#000" stroke="#000" points="568.859 -200.731 571.906 -190.584 563.196 -196.617 568.859 -200.731"/></g><g id="edge10" class="edge"><title>kilo-gcp-worker0.sapyens.org-&gt;kilo-gcp-worker4.sapyens.org</title><path fill="none" stroke="#000" d="M586.8213,-366.7956C611.4821,-370.379 637.2706,-374.1263 661.8484,-377.6977"/><polygon fill="#000" stroke="#000" points="586.956 -363.279 576.556 -365.304 585.949 -370.206 586.956 -363.279"/><polygon fill="#000" stroke="#000" points="661.533 -381.188 671.932 -379.163 662.539 -374.261 661.533 -381.188"/></g></g></svg>