<svg xmlns="http://www.w3.org/2000/svg" xmlns:xlink="http://www.w3.org/1999/xlink" width="1055pt" height="871pt" viewBox="0 0 1055.04 870.76"><g id="graph0" class="graph" transform="scale(1 1) rotate(0) translate(4 866.7645)"><title>kilo</title><polygon fill="#fff" stroke="transparent" points="-4 4 -4 -866.764 1051.038 -866.764 1051.038 4 -4 4"/><text x="523.519" y="-847.564" fill="#000" font-family="Times,serif" font-size="14" text-anchor="middle">10.4.0.0/16</text><g id="node1" class="node"><title>kilo-gcp-worker0.sapyens.org</title><ellipse cx="781.414" cy="-419.882" fill="none" stroke="#000" rx="124.402" ry="58.88"/><text x="781.414" y="-446.182" fill="#000" font-family="Times,serif" font-size="14" text-anchor="middle">gcp</text><text x="781.414" y="-431.182" fill="#000" font-family="Times,serif" font-size="14" text-anchor="middle">kilo-gcp-worker0.sapyens.org</text><text x="781.414" y="-416.182" fill="#000" font-family="Times,serif" font-size="14" text-anchor="middle">10.2.10.0/24</text><text x="781.414" y="-401.182" fill="#000" font-family="Times,serif" font-size="14" text-anchor="middle">10.1.96.6</text><text x="781.414" y="-386.182" fill="#000" font-family="Times,serif" font-size="14" text-anchor="middle">10.4.0.9</text></g><g id="node2" class="node"><title>kilo-gcp-worker1.sapyens.org</title><ellipse cx="803.482" cy="-69.346" fill="none" stroke="#000" rx="124.402" ry="48.167"/><text x="803.482" y="-88.146" fill="#000" font-family="Times,serif" font-size="14" text-anchor="middle">gcp</text><text x="803.482" y="-73.146" fill="#000" font-family="Times,serif" font-size="14" text-anchor="middle">kilo-gcp-worker1.sapyens.org</text><text x="803.482" y="-58.146" fill="#000" font-family="Times,serif" font-size="14" text-anchor="middle">10.2.12.0/24</text><text x="803.482" y="-43.146" fill="#000" font-family="Times,serif" font-size="14" text-anchor="middle">10.1.96.8</text></g><g id="node3" class="node"><title>kilo-gcp-worker2.sapyens.org</title><ellipse cx="922.587" cy="-293.13" fill="none" stroke="#000" rx="124.402" ry="48.167"/><text x="922.587" y="-311.93" fill="#000" font-family="Times,serif" font-size="14" text-anchor="middle">gcp</text><text x="922.587" y="-296.93" fill="#000" font-family="Times,serif" font-size="14" text-anchor="middle">kilo-gcp-worker2.sapyens.org</text><text x="922.587" y="-281.93" fill="#000" font-family="Times,serif" font-size="14" text-anchor="middle">10.2.9.0/24</text><text x="922.587" y="-266.93" fill="#000" font-family="Times,serif" font-size="14" text-anchor="middle">10.1.96.4</text></g><g id="node4" class="node"><title>kilo-gcp-worker3.sapyens.org</title><ellipse cx="922.587" cy="-546.635" fill="none" stroke="#000" rx="124.402" ry="48.167"/><text x="922.587" y="-565.435" fill="#000" font-family="Times,serif" font-size="14" text-anchor="middle">gcp</text><text x="922.587" y="-550.435" fill="#000" font-family="Times,serif" font-size="14" text-anchor="middle">kilo-gcp-worker3.sapyens.org</text><text x="922.587" y="-535.435" fill="#000" font-family="Times,serif" font-size="14" text-anchor="middle">10.2.8.0/24</text><text x="922.587" y="-520.435" fill="#000" font-family="Times,serif" font-size="14" text-anchor="middle">10.1.96.5</text></g><g id="node5" class="node"><title>kilo-gcp-worker4.sapyens.org</title><ellipse cx="803.482" cy="-770.418" fill="none" stroke="#000" rx="124.402" ry="48.167"/><text x="803.482" y="-789.218" fill="#000" font-family="Times,serif" font-size="14" text-anchor="middle">gcp</text><text x="803.482" y="-774.218" fill="#000" font-family="Times,serif" font-size="14" text-anchor="middle">kilo-gcp-worker4.sapyens.org</text><text x="803.482" y="-759.218" fill="#000" font-family="Times,serif" font-size="14" text-anchor="middle">10.2.11.0/24</text><text x="803.482" y="-744.218" fill="#000" font-family="Times,serif" font-size="14" text-anchor="middle">10.1.96.7</text></g><g id="node6" class="node"><title>ip-10-0-15-186</title><ellipse cx="695.607" cy="-655.634" fill="none" stroke="#000" rx="70.007" ry="58.88"/><text x="695.607" y="-681.934" fill="#000" font-family="Times,serif" font-size="14" text-anchor="middle">ip-10-0-15-186</text><text x="695.607" y="-666.934" fill="#000" font-family="Times,serif" font-size="14" text-anchor="middle">ip-10-0-15-186</text><text x="695.607" y="-651.934" fill="#000" font-family="Times,serif" font-size="14" text-anchor="middle">10.2.3.0/24</text><text x="695.607" y="-636.934" fill="#000" font-family="Times,serif" font-size="14" text-anchor="middle">10.0.15.186</text><text x="695.607" y="-621.934" fill="#000" font-family="Times,serif" font-size="14" text-anchor="middle">10.4.0.1</text></g><g id="node7" class="node"><title>ip-10-0-29-239</title><ellipse cx="478.337" cy="-58.69" fill="none" stroke="#000" rx="70.007" ry="58.88"/><text x="478.337" y="-84.99" fill="#000" font-family="Times,serif" font-size="14" text-anchor="middle">ip-10-0-29-239</text><text x="478.337" y="-69.99" fill="#000" font-family="Times,serif" font-size="14" text-anchor="middle">ip-10-0-29-239</text><text x="478.337" y="-54.99" fill="#000" font-family="Times,serif" font-size="14" text-anchor="middle">10.2.4.0/24</text><text x="478.337" y="-39.99" fill="#000" font-family="Times,serif" font-size="14" text-anchor="middle">10.0.29.239</text><text x="478.337" y="-24.99" fill="#000" font-family="Times,serif" font-size="14" text-anchor="middle">10.4.0.2</text></g><g id="node8" class="node"><title>ip-10-0-3-226</title><ellipse cx="231.267" cy="-102.255" fill="none" stroke="#000" rx="65.108" ry="58.88"/><text x="231.267" y="-128.555" fill="#000" font-family="Times,serif" font-size="14" text-anchor="middle">ip-10-0-3-226</text><text x="231.267" y="-113.555" fill="#000" font-family="Times,serif" font-size="14" text-anchor="middle">ip-10-0-3-226</text><text x="231.267" y="-98.555" fill="#000" font-family="Times,serif" font-size="14" text-anchor="middle">10.2.1.0/24</text><text x="231.267" y="-83.555" fill="#000" font-family="Times,serif" font-size="14" text-anchor="middle">10.0.3.226</text><text x="231.267" y="-68.555" fill="#000" font-family="Times,serif" font-size="14" text-anchor="middle">10.4.0.3</text></g><g id="node9" class="node"><title>ip-10-0-31-112</title><ellipse cx="70.004" cy="-294.442" fill="none" stroke="#000" rx="70.007" ry="58.88"/><text x="70.004" y="-320.741" fill="#000" font-family="Times,serif" font-size="14" text-anchor="middle">ip-10-0-31-112</text><text x="70.004" y="-305.741" fill="#000" font-family="Times,serif" font-size="14" text-anchor="middle">ip-10-0-31-112</text><text x="70.004" y="-290.741" fill="#000" font-family="Times,serif" font-size="14" text-anchor="middle">10.2.5.0/24</text><text x="70.004" y="-275.741" fill="#000" font-family="Times,serif" font-size="14" text-anchor="middle">10.0.31.112</text><text x="70.004" y="-260.741" fill="#000" font-family="Times,serif" font-size="14" text-anchor="middle">10.4.0.4</text></g><g id="node10" class="node"><title>ip-10-0-35-46</title><ellipse cx="70.004" cy="-545.323" fill="none" stroke="#000" rx="65.108" ry="58.88"/><text x="70.004" y="-571.623" fill="#000" font-family="Times,serif" font-size="14" text-anchor="middle">ip-10-0-35-46</text><text x="70.004" y="-556.623" fill="#000" font-family="Times,serif" font-size="14" text-anchor="middle">ip-10-0-35-46</text><text x="70.004" y="-541.623" fill="#000" font-family="Times,serif" font-size="14" text-anchor="middle">10.2.0.0/24</text><text x="70.004" y="-526.623" fill="#000" font-family="Times,serif" font-size="14" text-anchor="middle">10.0.35.46</text><text x="70.004" y="-511.623" fill="#000" font-family="Times,serif" font-size="14" text-anchor="middle">10.4.0.5</text></g><g id="node11" class="node"><title>ip-10-0-41-215</title><ellipse cx="231.267" cy="-737.51" fill="none" stroke="#000" rx="70.007" ry="58.88"/><text x="231.267" y="-763.809" fill="#000" font-family="Times,serif" font-size="14" text-anchor="middle">ip-10-0-41-215</text><text x="231.267" y="-748.809" fill="#000" font-family="Times,serif" font-size="14" text-anchor="middle">ip-10-0-41-215</text><text x="231.267" y="-733.809" fill="#000" font-family="Times,serif" font-size="14" text-anchor="middle">10.2.2.0/24</text><text x="231.267" y="-718.809" fill="#000" font-family="Times,serif" font-size="14" text-anchor="middle">10.0.41.215</text><text x="231.267" y="-703.809" fill="#000" font-family="Times,serif" font-size="14" text-anchor="middle">10.4.0.6</text></g><g id="node12" class="node"><title>ip-10-0-46-197</title><ellipse cx="478.337" cy="-781.075" fill="none" stroke="#000" rx="70.007" ry="58.88"/><text x="478.337" y="-807.375" fill="#000" font-family="Times,serif" font-size="14" text-anchor="middle">ip-10-0-46-197</text><text x="478.337" y="-792.375" fill="#000" font-family="Times,serif" font-size="14" text-anchor="middle">ip-10-0-46-197</text><text x="478.337" y="-777.375" fill="#000" font-family="Times,serif" font-size="14" text-anchor="middle">10.2.6.0/24</text><text x="478.337" y="-762.375" fill="#000" font-family="Times,serif" font-size="14" text-anchor="middle">10.0.46.197</text><text x="478.337" y="-747.375" fill="#000" font-family="Times,serif" font-size="14" text-anchor="middle">10.4.0.7</text></g><g id="node13" class="node"><title>ip-10-0-6-0</title><ellipse cx="695.607" cy="-184.131" fill="none" stroke="#000" rx="55.723" ry="58.88"/><text x="695.607" y="-210.431" fill="#000" font-family="Times,serif" font-size="14" text-anchor="middle">ip-10-0-6-0</text><text x="695.607" y="-195.431" fill="#000" font-family="Times,serif" font-size="14" text-anchor="middle">ip-10-0-6-0</text><text x="695.607" y="-180.431" fill="#000" font-family="Times,serif" font-size="14" text-anchor="middle">10.2.7.0/24</text><text x="695.607" y="-165.431" fill="#000" font-family="Times,serif" font-size="14" text-anchor="middle">10.0.6.0</text><text x="695.607" y="-150.431" fill="#000" font-family="Times,serif" font-size="14" text-anchor="middle">10.4.0.8</text></g><g id="edge1" class="edge"><title>kilo-gcp-worker0.sapyens.org-&gt;kilo-gcp-worker1.sapyens.org</title><path fill="none" stroke="#000" d="M785.7573,-350.8898C789.8573,-285.7665 795.9372,-189.1946 799.804,-127.7756"/><polygon fill="#000" stroke="#000" points="782.243 -351.01 785.107 -361.21 789.229 -351.45 782.243 -351.01"/><polygon fill="#000" stroke="#000" points="803.317 -127.682 800.452 -117.482 796.331 -127.242 803.317 -127.682"/></g><g id="edge2" class="edge"><title>kilo-gcp-worker0.sapyens.org-&gt;kilo-gcp-worker2.sapyens.org</title><path fill="none" stroke="#000" d="M847.2378,-360.782C853.3399,-355.3032 859.4897,-349.7816 865.5036,-344.382"/><polygon fill="#000" stroke="#000" points="844.752 -358.31 839.649 -367.595 849.428 -363.519 844.752 -358.31"/><polygon fill="#000" stroke="#000" points="867.932 -346.905 873.035 -337.62 863.256 -341.697 867.932 -346.905"/></g><g id="edge3" class="edge"><title>kilo-gcp-worker0.sapyens.org-&gt;kilo-gcp-worker3.sapyens.org</title><path fill="none" stroke="#000" d="M847.2378,-478.9825C853.3399,-484.4613 859.4897,-489.9829 865.5036,-495.3825"/><polygon fill="#000" stroke="#000" points="849.428 -476.246 839.649 -472.169 844.752 -481.454 849.428 -476.246"/><polygon fill="#000" stroke="#000" points="863.256 -498.068 873.035 -502.144 867.932 -492.859 863.256 -498.068"/></g><g id="edge4" class="edge"><title>kilo-gcp-worker0.sapyens.org-&gt;kilo-gcp-worker4.sapyens.org</title><path fill="none" stroke="#000" d="M785.7573,-488.8747C789.8573,-553.998 795.9372,-650.5699 799.804,-711.9889"/><polygon fill="#000" stroke="#000" points="789.229 -488.314 785.107 -478.554 782.243 -488.754 789.229 -488.314"/><polygon fill="#000" stroke="#000" points="796.331 -712.522 800.452 -722.283 803.317 -712.082 796.331 -712.522"/></g><g id="edge12" class="edge"><title>ip-10-0-15-186-&gt;kilo-gcp-worker0.sapyens.org</title><path fill="none" stroke="#000" d="M719.573,-589.7883C731.1442,-557.9966 745.0146,-519.8879 756.6844,-487.8255"/><polygon fill="#000" stroke="#000" points="716.182 -588.871 716.051 -599.465 722.76 -591.265 716.182 -588.871"/><polygon fill="#000" stroke="#000" points="760.099 -488.677 760.23 -478.083 753.521 -486.283 760.099 -488.677"/></g><g id="edge5" class="edge"><title>ip-10-0-15-186-&gt;ip-10-0-29-239</title><path fill="none" stroke="#000" d="M671.6556,-589.8275C629.906,-475.1215 544.2725,-239.8452 502.4266,-124.8747"/><polygon fill="#000" stroke="#000" points="668.458 -591.275 675.167 -599.475 675.036 -588.881 668.458 -591.275"/><polygon fill="#000" stroke="#000" points="505.591 -123.334 498.882 -115.135 499.013 -125.729 505.591 -123.334"/></g><g id="edge6" class="edge"><title>ip-10-0-15-186-&gt;ip-10-0-3-226</title><path fill="none" stroke="#000" d="M648.5355,-599.536C559.0551,-492.8975 365.4674,-262.1886 277.0206,-156.7818"/><polygon fill="#000" stroke="#000" points="646.103 -602.082 655.212 -607.493 651.466 -597.583 646.103 -602.082"/><polygon fill="#000" stroke="#000" points="279.69 -154.518 270.581 -149.108 274.328 -159.018 279.69 -154.518"/></g><g id="edge7" class="edge"><title>ip-10-0-15-186-&gt;ip-10-0-31-112</title><path fill="none" stroke="#000" d="M628.8871,-617.113C508.6866,-547.7152 257.1099,-402.4674 136.8311,-333.0244"/><polygon fill="#000" stroke="#000" points="627.463 -620.332 637.873 -622.301 630.963 -614.27 627.463 -620.332"/><polygon fill="#000" stroke="#000" points="138.462 -329.925 128.052 -327.956 134.962 -335.987 138.462 -329.925"/></g><g id="edge8" class="edge"><title>ip-10-0-15-186-&gt;ip-10-0-35-46</title><path fill="none" stroke="#000" d="M616.9585,-641.766C495.3149,-620.3169 263.1879,-579.3867 144.2642,-558.4172"/><polygon fill="#000" stroke="#000" points="616.411 -645.223 626.867 -643.513 617.627 -638.33 616.411 -645.223"/><polygon fill="#000" stroke="#000" points="144.616 -554.925 134.16 -556.635 143.4 -561.819 144.616 -554.925"/></g><g id="edge9" class="edge"><title>ip-10-0-15-186-&gt;ip-10-0-41-215</title><path fill="none" stroke="#000" d="M617.0626,-669.4834C531.5442,-684.5626 395.5731,-708.5379 309.9862,-723.6292"/><polygon fill="#000" stroke="#000" points="617.852 -672.898 627.092 -667.715 616.636 -666.005 617.852 -672.898"/><polygon fill="#000" stroke="#000" points="309.303 -720.196 300.063 -725.379 310.519 -727.089 309.303 -720.196"/></g><g id="edge10" class="edge"><title>ip-10-0-15-186-&gt;ip-10-0-46-197</title><path fill="none" stroke="#000" d="M628.649,-694.2922C602.0513,-709.6484 571.5248,-727.2728 544.9603,-742.6099"/><polygon fill="#000" stroke="#000" points="630.758 -697.116 637.668 -689.085 627.258 -691.054 630.758 -697.116"/><polygon fill="#000" stroke="#000" points="543.025 -739.686 536.115 -747.717 546.525 -745.748 543.025 -739.686"/></g><g id="edge11" class="edge"><title>ip-10-0-15-186-&gt;ip-10-0-6-0</title><path fill="none" stroke="#000" d="M695.6072,-586.736C695.6072,-497.3381 695.6072,-342.2666 695.6072,-252.9213"/><polygon fill="#000" stroke="#000" points="692.107 -586.871 695.607 -596.871 699.107 -586.871 692.107 -586.871"/><polygon fill="#000" stroke="#000" points="699.107 -252.892 695.607 -242.892 692.107 -252.892 699.107 -252.892"/></g><g id="edge19" class="edge"><title>ip-10-0-29-239-&gt;kilo-gcp-worker0.sapyens.org</title><path fill="none" stroke="#000" d="M525.337,-114.7019C580.4472,-180.3797 671.5375,-288.9369 728.9174,-357.3196"/><polygon fill="#000" stroke="#000" points="528.006 -112.438 518.897 -107.027 522.644 -116.937 528.006 -112.438"/><polygon fill="#000" stroke="#000" points="726.288 -359.632 735.397 -365.042 731.651 -355.132 726.288 -359.632"/></g><g id="edge13" class="edge"><title>ip-10-0-29-239-&gt;ip-10-0-3-226</title><path fill="none" stroke="#000" d="M399.2867,-72.6286C369.1707,-77.9389 334.9838,-83.967 305.3459,-89.1929"/><polygon fill="#000" stroke="#000" points="400.274 -76.009 409.514 -70.825 399.059 -69.115 400.274 -76.009"/><polygon fill="#000" stroke="#000" points="304.722 -85.749 295.482 -90.932 305.938 -92.642 304.722 -85.749"/></g><g id="edge14" class="edge"><title>ip-10-0-29-239-&gt;ip-10-0-31-112</title><path fill="none" stroke="#000" d="M411.3748,-97.3507C335.5355,-141.1365 212.6817,-212.0662 136.8786,-255.8311"/><polygon fill="#000" stroke="#000" points="413.356 -100.248 420.267 -92.217 409.856 -94.186 413.356 -100.248"/><polygon fill="#000" stroke="#000" points="134.784 -252.999 127.874 -261.03 138.284 -259.061 134.784 -252.999"/></g><g id="edge15" class="edge"><title>ip-10-0-29-239-&gt;ip-10-0-35-46</title><path fill="none" stroke="#000" d="M431.0324,-115.0657C351.979,-209.2779 194.0147,-397.5324 115.9059,-490.6188"/><polygon fill="#000" stroke="#000" points="433.945 -117.039 437.692 -107.129 428.583 -112.54 433.945 -117.039"/><polygon fill="#000" stroke="#000" points="113.03 -488.601 109.284 -498.511 118.393 -493.1 113.03 -488.601"/></g><g id="edge16" class="edge"><title>ip-10-0-29-239-&gt;ip-10-0-41-215</title><path fill="none" stroke="#000" d="M454.2809,-124.7843C407.0209,-254.6302 302.557,-541.6422 255.3089,-671.4554"/><polygon fill="#000" stroke="#000" points="457.671 -125.702 457.803 -115.108 451.094 -123.308 457.671 -125.702"/><polygon fill="#000" stroke="#000" points="252.002 -670.307 251.871 -680.901 258.58 -672.701 252.002 -670.307"/></g><g id="edge17" class="edge"><title>ip-10-0-29-239-&gt;ip-10-0-46-197</title><path fill="none" stroke="#000" d="M478.3373,-127.7839C478.3373,-265.8787 478.3373,-574.5093 478.3373,-712.3223"/><polygon fill="#000" stroke="#000" points="481.837 -127.499 478.337 -117.499 474.837 -127.499 481.837 -127.499"/><polygon fill="#000" stroke="#000" points="474.837 -712.342 478.337 -722.342 481.837 -712.342 474.837 -712.342"/></g><g id="edge18" class="edge"><title>ip-10-0-29-239-&gt;ip-10-0-6-0</title><path fill="none" stroke="#000" d="M545.3047,-97.3535C574.7281,-114.3411 608.958,-134.1038 637.3132,-150.4746"/><polygon fill="#000" stroke="#000" points="546.687 -94.11 536.276 -92.141 543.187 -100.172 546.687 -94.11"/><polygon fill="#000" stroke="#000" points="635.889 -153.694 646.299 -155.663 639.389 -147.632 635.889 -153.694"/></g><g id="edge25" class="edge"><title>ip-10-0-3-226-&gt;kilo-gcp-worker0.sapyens.org</title><path fill="none" stroke="#000" d="M295.1632,-139.1454C393.5183,-195.9307 582.2597,-304.9007 693.4524,-369.0978"/><polygon fill="#000" stroke="#000" points="296.692 -135.987 286.282 -134.018 293.192 -142.049 296.692 -135.987"/><polygon fill="#000" stroke="#000" points="691.902 -372.244 702.312 -374.213 695.402 -366.182 691.902 -372.244"/></g><g id="edge20" class="edge"><title>ip-10-0-3-226-&gt;ip-10-0-31-112</title><path fill="none" stroke="#000" d="M185.2996,-157.037C163.9114,-182.5265 138.504,-212.8058 116.9904,-238.4447"/><polygon fill="#000" stroke="#000" points="188.071 -159.179 191.818 -149.269 182.709 -154.68 188.071 -159.179"/><polygon fill="#000" stroke="#000" points="114.194 -236.332 110.448 -246.242 119.557 -240.831 114.194 -236.332"/></g><g id="edge21" class="edge"><title>ip-10-0-3-226-&gt;ip-10-0-35-46</title><path fill="none" stroke="#000" d="M207.3798,-167.8849C176.8491,-251.7674 124.3072,-396.1252 93.8136,-479.9055"/><polygon fill="#000" stroke="#000" points="210.712 -168.964 210.843 -158.37 204.134 -166.57 210.712 -168.964"/><polygon fill="#000" stroke="#000" points="90.52 -478.721 90.389 -489.315 97.098 -481.115 90.52 -478.721"/></g><g id="edge22" class="edge"><title>ip-10-0-3-226-&gt;ip-10-0-41-215</title><path fill="none" stroke="#000" d="M231.2672,-171.4319C231.2672,-293.5842 231.2672,-546.1014 231.2672,-668.2865"/><polygon fill="#000" stroke="#000" points="234.767 -171.163 231.267 -161.163 227.767 -171.163 234.767 -171.163"/><polygon fill="#000" stroke="#000" points="227.767 -668.631 231.267 -678.631 234.767 -668.631 227.767 -668.631"/></g><g id="edge23" class="edge"><title>ip-10-0-3-226-&gt;ip-10-0-46-197</title><path fill="none" stroke="#000" d="M255.1074,-167.7554C302.3069,-297.4351 407.1647,-585.5295 454.4238,-715.373"/><polygon fill="#000" stroke="#000" points="258.3 -166.294 251.591 -158.094 251.722 -168.688 258.3 -166.294"/><polygon fill="#000" stroke="#000" points="451.153 -716.619 457.862 -724.819 457.731 -714.225 451.153 -716.619"/></g><g id="edge24" class="edge"><title>ip-10-0-3-226-&gt;ip-10-0-6-0</title><path fill="none" stroke="#000" d="M305.2861,-115.3065C395.0217,-131.1293 544.8332,-157.5451 630.4026,-172.6333"/><polygon fill="#000" stroke="#000" points="305.8 -111.843 295.344 -113.553 304.584 -118.737 305.8 -111.843"/><polygon fill="#000" stroke="#000" points="630.055 -176.126 640.511 -174.416 631.271 -169.232 630.055 -176.126"/></g><g id="edge30" class="edge"><title>ip-10-0-31-112-&gt;kilo-gcp-worker0.sapyens.org</title><path fill="none" stroke="#000" d="M148.4335,-308.2708C270.7177,-329.8328 507.9735,-371.6674 654.7344,-397.5453"/><polygon fill="#000" stroke="#000" points="148.995 -304.816 138.54 -306.526 147.78 -311.71 148.995 -304.816"/><polygon fill="#000" stroke="#000" points="654.249 -401.014 664.705 -399.303 655.465 -394.12 654.249 -401.014"/></g><g id="edge26" class="edge"><title>ip-10-0-31-112-&gt;ip-10-0-35-46</title><path fill="none" stroke="#000" d="M70.0036,-363.3792C70.0036,-398.5092 70.0036,-441.1131 70.0036,-476.2607"/><polygon fill="#000" stroke="#000" points="73.504 -363.262 70.004 -353.262 66.504 -363.262 73.504 -363.262"/><polygon fill="#000" stroke="#000" points="66.504 -476.437 70.004 -486.437 73.504 -476.437 66.504 -476.437"/></g><g id="edge27" class="edge"><title>ip-10-0-31-112-&gt;ip-10-0-41-215</title><path fill="none" stroke="#000" d="M94.0554,-360.5234C124.5847,-444.402 176.9313,-588.223 207.3813,-671.8836"/><polygon fill="#000" stroke="#000" points="97.301 -359.206 90.591 -351.006 90.723 -361.6 97.301 -359.206"/><polygon fill="#000" stroke="#000" points="204.093 -673.082 210.802 -681.281 210.671 -670.687 204.093 -673.082"/></g><g id="edge28" class="edge"><title>ip-10-0-31-112-&gt;ip-10-0-46-197</title><path fill="none" stroke="#000" d="M117.2733,-350.7753C195.898,-444.4766 352.6497,-631.2859 431.1919,-724.889"/><polygon fill="#000" stroke="#000" points="119.758 -348.291 110.649 -342.881 114.396 -352.791 119.758 -348.291"/><polygon fill="#000" stroke="#000" points="428.747 -727.42 437.856 -732.831 434.11 -722.921 428.747 -727.42"/></g><g id="edge29" class="edge"><title>ip-10-0-31-112-&gt;ip-10-0-6-0</title><path fill="none" stroke="#000" d="M148.9172,-280.5269C273.7675,-258.5124 514.5261,-216.0601 630.2998,-195.6461"/><polygon fill="#000" stroke="#000" points="147.984 -277.137 138.744 -282.321 149.2 -284.031 147.984 -277.137"/><polygon fill="#000" stroke="#000" points="631.194 -199.043 640.434 -193.859 629.978 -192.149 631.194 -199.043"/></g><g id="edge34" class="edge"><title>ip-10-0-35-46-&gt;kilo-gcp-worker0.sapyens.org</title><path fill="none" stroke="#000" d="M144.2043,-532.2395C265.1019,-510.922 505.9752,-468.4495 654.4686,-442.2661"/><polygon fill="#000" stroke="#000" points="143.317 -528.842 134.077 -534.025 144.532 -535.736 143.317 -528.842"/><polygon fill="#000" stroke="#000" points="655.315 -445.671 664.556 -440.488 654.1 -438.777 655.315 -445.671"/></g><g id="edge31" class="edge"><title>ip-10-0-35-46-&gt;ip-10-0-41-215</title><path fill="none" stroke="#000" d="M115.9711,-600.105C137.3593,-625.5945 162.7667,-655.8739 184.2803,-681.5127"/><polygon fill="#000" stroke="#000" points="118.562 -597.748 109.453 -592.337 113.2 -602.247 118.562 -597.748"/><polygon fill="#000" stroke="#000" points="181.714 -683.899 190.823 -689.31 187.076 -679.4 181.714 -683.899"/></g><g id="edge32" class="edge"><title>ip-10-0-35-46-&gt;ip-10-0-46-197</title><path fill="none" stroke="#000" d="M133.9165,-582.2232C209.4553,-625.8355 334.5683,-698.0696 411.4013,-742.4291"/><polygon fill="#000" stroke="#000" points="135.484 -579.087 125.073 -577.118 131.983 -585.149 135.484 -579.087"/><polygon fill="#000" stroke="#000" points="410.115 -745.728 420.525 -747.697 413.615 -739.666 410.115 -745.728"/></g><g id="edge33" class="edge"><title>ip-10-0-35-46-&gt;ip-10-0-6-0</title><path fill="none" stroke="#000" d="M133.711,-508.5416C255.5526,-438.1963 519.9072,-285.5711 637.3525,-217.764"/><polygon fill="#000" stroke="#000" points="131.884 -505.555 124.973 -513.586 135.384 -511.617 131.884 -505.555"/><polygon fill="#000" stroke="#000" points="639.317 -220.671 646.227 -212.64 635.817 -214.609 639.317 -220.671"/></g><g id="edge37" class="edge"><title>ip-10-0-41-215-&gt;kilo-gcp-worker0.sapyens.org</title><path fill="none" stroke="#000" d="M298.068,-698.942C397.2263,-641.693 583.465,-534.168 693.559,-470.6052"/><polygon fill="#000" stroke="#000" points="296.013 -696.087 289.103 -704.118 299.513 -702.149 296.013 -696.087"/><polygon fill="#000" stroke="#000" points="695.423 -473.571 702.333 -465.54 691.922 -467.509 695.423 -473.571"/></g><g id="edge35" class="edge"><title>ip-10-0-41-215-&gt;ip-10-0-46-197</title><path fill="none" stroke="#000" d="M310.2744,-751.4406C338.8129,-756.4727 371.0116,-762.1502 399.5327,-767.1793"/><polygon fill="#000" stroke="#000" points="310.546 -747.935 300.09 -749.645 309.33 -754.828 310.546 -747.935"/><polygon fill="#000" stroke="#000" points="399 -770.639 409.455 -768.929 400.215 -763.745 399 -770.639"/></g><g id="edge36" class="edge"><title>ip-10-0-41-215-&gt;ip-10-0-6-0</title><path fill="none" stroke="#000" d="M278.1214,-681.6708C368.2143,-574.3023 564.4167,-340.4774 651.9402,-236.171"/><polygon fill="#000" stroke="#000" points="275.409 -679.459 271.662 -689.369 280.771 -683.958 275.409 -679.459"/><polygon fill="#000" stroke="#000" points="654.809 -238.197 658.556 -228.287 649.447 -233.698 654.809 -238.197"/></g><g id="edge39" class="edge"><title>ip-10-0-46-197-&gt;kilo-gcp-worker0.sapyens.org</title><path fill="none" stroke="#000" d="M525.337,-725.0626C580.4472,-659.3848 671.5375,-550.8276 728.9174,-482.4449"/><polygon fill="#000" stroke="#000" points="522.644 -722.827 518.897 -732.737 528.006 -727.327 522.644 -722.827"/><polygon fill="#000" stroke="#000" points="731.651 -484.633 735.397 -474.722 726.288 -480.133 731.651 -484.633"/></g><g id="edge38" class="edge"><title>ip-10-0-46-197-&gt;ip-10-0-6-0</title><path fill="none" stroke="#000" d="M502.3027,-715.2302C544.2218,-600.0585 630.3516,-363.4189 672.0101,-248.9631"/><polygon fill="#000" stroke="#000" points="498.909 -714.322 498.777 -724.916 505.487 -716.716 498.909 -714.322"/><polygon fill="#000" stroke="#000" points="675.406 -249.867 675.537 -239.273 668.828 -247.473 675.406 -249.867"/></g><g id="edge40" class="edge"><title>ip-10-0-6-0-&gt;kilo-gcp-worker0.sapyens.org</title><path fill="none" stroke="#000" d="M719.1651,-248.8555C730.8838,-281.0524 745.0381,-319.9411 756.8868,-352.4952"/><polygon fill="#000" stroke="#000" points="722.326 -247.306 715.617 -239.106 715.748 -249.7 722.326 -247.306"/><polygon fill="#000" stroke="#000" points="753.615 -353.738 760.324 -361.938 760.192 -351.344 753.615 -353.738"/></g></g></svg>